Radio-Canada-MediumItalic.ufo
<glyph name="exclam" format="1">
  <advance width="326"/>
  <unicode hex="0021"/>
  <outline>
    <contour>
      <point x="35" y="56" type="curve" smooth="yes"/>
      <point x="35" y="15"/>
      <point x="63" y="-11"/>
      <point x="106" y="-11" type="curve" smooth="yes"/>
      <point x="156" y="-11"/>
      <point x="200" y="29"/>
      <point x="200" y="81" type="curve" smooth="yes"/>
      <point x="200" y="123"/>
      <point x="172" y="148"/>
      <point x="129" y="148" type="curve" smooth="yes"/>
      <point x="79" y="148"/>
      <point x="35" y="108"/>
    </contour>
    <contour>
      <point x="107" y="239" type="line"/>
      <point x="203" y="239" type="line"/>
      <point x="288" y="521" type="line"/>
      <point x="324" y="690" type="line"/>
      <point x="185" y="690" type="line"/>
      <point x="149" y="521" type="line"/>
    </contour>
  </outline>
</glyph>
<glyph name="quotedbl" format="1">
  <advance width="440"/>
  <unicode hex="0022"/>
  <outline>
    <contour>
      <point x="104" y="407" type="line"/>
      <point x="191" y="407" type="line"/>
      <point x="286" y="720" type="line"/>
      <point x="142" y="720" type="line"/>
    </contour>
    <contour>
      <point x="302" y="407" type="line"/>
      <point x="389" y="407" type="line"/>
      <point x="484" y="720" type="line"/>
      <point x="341" y="720" type="line"/>
    </contour>
  </outline>
</glyph>
<glyph name="numbersign" format="1">
  <advance width="756"/>
  <unicode hex="0023"/>
  <outline>
    <contour>
      <point x="42" y="0" type="line"/>
      <point x="169" y="0" type="line"/>
      <point x="485" y="690" type="line"/>
      <point x="357" y="690" type="line"/>
    </contour>
    <contour>
      <point x="26" y="166" type="line"/>
      <point x="619" y="166" type="line"/>
      <point x="643" y="279" type="line"/>
      <point x="50" y="279" type="line"/>
    </contour>
    <contour>
      <point x="139" y="411" type="line"/>
      <point x="732" y="411" type="line"/>
      <point x="756" y="524" type="line"/>
      <point x="163" y="524" type="line"/>
    </contour>
    <contour>
      <point x="299" y="0" type="line"/>
      <point x="426" y="0" type="line"/>
      <point x="742" y="690" type="line"/>
      <point x="614" y="690" type="line"/>
    </contour>
  </outline>
</glyph>
<glyph name="percent" format="1">
  <advance width="944"/>
  <unicode hex="0025"/>
  <outline>
    <contour>
      <point x="113" y="490" type="curve"/>
      <point x="113" y="401"/>
      <point x="174" y="344"/>
      <point x="256" y="344" type="curve"/>
      <point x="388" y="344"/>
      <point x="456" y="453"/>
      <point x="456" y="555" type="curve"/>
      <point x="456" y="644"/>
      <point x="396" y="701"/>
      <point x="312" y="701" type="curve"/>
      <point x="190" y="701"/>
      <point x="113" y="597"/>
    </contour>
    <contour>
      <point x="208" y="497" type="curve"/>
      <point x="208" y="560"/>
      <point x="245" y="616"/>
      <point x="303" y="616" type="curve"/>
      <point x="341" y="616"/>
      <point x="365" y="591"/>
      <point x="365" y="548" type="curve"/>
      <point x="365" y="485"/>
      <point x="327" y="430"/>
      <point x="269" y="430" type="curve"/>
      <point x="232" y="430"/>
      <point x="208" y="455"/>
    </contour>
    <contour>
      <point x="129" y="0" type="line"/>
      <point x="250" y="0" type="line"/>
      <point x="839" y="690" type="line"/>
      <point x="718" y="690" type="line"/>
    </contour>
    <contour>
      <point x="514" y="135" type="curve"/>
      <point x="514" y="46"/>
      <point x="575" y="-11"/>
      <point x="657" y="-11" type="curve"/>
      <point x="790" y="-11"/>
      <point x="857" y="98"/>
      <point x="857" y="200" type="curve"/>
      <point x="857" y="289"/>
      <point x="797" y="346"/>
      <point x="713" y="346" type="curve"/>
      <point x="590" y="346"/>
      <point x="514" y="241"/>
    </contour>
    <contour>
      <point x="609" y="142" type="curve"/>
      <point x="609" y="204"/>
      <point x="646" y="260"/>
      <point x="704" y="260" type="curve"/>
      <point x="741" y="260"/>
      <point x="766" y="235"/>
      <point x="766" y="192" type="curve"/>
      <point x="766" y="129"/>
      <point x="728" y="75"/>
      <point x="670" y="75" type="curve"/>
      <point x="633" y="75"/>
      <point x="609" y="99"/>
    </contour>
  </outline>
</glyph>
<glyph name="ampersand" format="1">
  <advance width="663"/>
  <unicode hex="0026"/>
  <outline>
    <contour>
      <point x="23" y="153" type="curve"/>
      <point x="23" y="58"/>
      <point x="99" y="-11"/>
      <point x="209" y="-11" type="curve"/>
      <point x="398" y="-11"/>
      <point x="534" y="146"/>
      <point x="613" y="299" type="curve"/>
      <point x="515" y="341" type="line"/>
      <point x="456" y="219"/>
      <point x="339" y="100"/>
      <point x="237" y="100" type="curve"/>
      <point x="183" y="100"/>
      <point x="151" y="128"/>
      <point x="151" y="170" type="curve"/>
      <point x="151" y="217"/>
      <point x="186" y="255"/>
      <point x="261" y="289" type="curve" smooth="yes"/>
      <point x="384" y="351" type="line" smooth="yes"/>
      <point x="500" y="402"/>
      <point x="555" y="465"/>
      <point x="555" y="547" type="curve"/>
      <point x="555" y="628"/>
      <point x="492" y="701"/>
      <point x="376" y="701" type="curve"/>
      <point x="238" y="701"/>
      <point x="171" y="616"/>
      <point x="171" y="520" type="curve"/>
      <point x="171" y="449"/>
      <point x="211" y="392"/>
      <point x="240" y="345" type="curve" smooth="yes"/>
      <point x="453" y="0" type="line"/>
      <point x="592" y="0" type="line"/>
      <point x="337" y="405" type="line" smooth="yes"/>
      <point x="310" y="449"/>
      <point x="292" y="483"/>
      <point x="292" y="523" type="curve"/>
      <point x="292" y="574"/>
      <point x="327" y="604"/>
      <point x="374" y="604" type="curve"/>
      <point x="419" y="604"/>
      <point x="439" y="572"/>
      <point x="438" y="537" type="curve"/>
      <point x="437" y="494"/>
      <point x="402" y="463"/>
      <point x="339" y="434" type="curve" smooth="yes"/>
      <point x="213" y="373" type="line" smooth="yes"/>
      <point x="85" y="315"/>
      <point x="23" y="247"/>
    </contour>
  </outline>
</glyph>
<glyph name="parenleft" format="1">
  <advance width="295"/>
  <unicode hex="0028"/>
  <outline>
    <contour>
      <point x="48" y="143" type="curve" smooth="yes"/>
      <point x="48" y="-1"/>
      <point x="95" y="-141"/>
      <point x="164" y="-249" type="curve"/>
      <point x="239" y="-200" type="line"/>
      <point x="198" y="-112"/>
      <point x="163" y="12"/>
      <point x="163" y="138" type="curve" smooth="yes"/>
      <point x="163" y="341"/>
      <point x="259" y="563"/>
      <point x="433" y="727" type="curve"/>
      <point x="384" y="784" type="line"/>
      <point x="184" y="635"/>
      <point x="48" y="400"/>
    </contour>
  </outline>
</glyph>
<glyph name="parenright" format="1">
  <advance width="296"/>
  <unicode hex="0029"/>
  <outline>
    <contour>
      <point x="-146" y="-192" type="curve"/>
      <point x="-95" y="-251" type="line"/>
      <point x="104" y="-102"/>
      <point x="241" y="133"/>
      <point x="241" y="391" type="curve" smooth="yes"/>
      <point x="241" y="535"/>
      <point x="194" y="675"/>
      <point x="124" y="783" type="curve"/>
      <point x="49" y="733" type="line"/>
      <point x="90" y="646"/>
      <point x="126" y="521"/>
      <point x="126" y="395" type="curve" smooth="yes"/>
      <point x="126" y="193"/>
      <point x="29" y="-30"/>
    </contour>
  </outline>
</glyph>
<glyph name="period" format="1">
  <advance width="245"/>
  <unicode hex="002E"/>
  <outline>
    <contour>
      <point x="-5" y="56" type="curve" smooth="yes"/>
      <point x="-5" y="15"/>
      <point x="22" y="-11"/>
      <point x="66" y="-11" type="curve" smooth="yes"/>
      <point x="116" y="-11"/>
      <point x="159" y="29"/>
      <point x="159" y="81" type="curve" smooth="yes"/>
      <point x="159" y="123"/>
      <point x="132" y="148"/>
      <point x="88" y="148" type="curve" smooth="yes"/>
      <point x="38" y="148"/>
      <point x="-5" y="108"/>
    </contour>
  </outline>
</glyph>
<glyph name="zero" format="1">
  <advance width="600.0"/>
  <unicode hex="0030"/>
  <outline>
    <contour>
      <point x="41" y="224" type="curve"/>
      <point x="41" y="83"/>
      <point x="113" y="-11"/>
      <point x="241" y="-11" type="curve"/>
      <point x="467" y="-11"/>
      <point x="584" y="237"/>
      <point x="585" y="465" type="curve"/>
      <point x="586" y="600"/>
      <point x="519" y="701"/>
      <point x="386" y="701" type="curve"/>
      <point x="157" y="701"/>
      <point x="41" y="453"/>
    </contour>
    <contour>
      <point x="172" y="237" type="curve"/>
      <point x="172" y="399"/>
      <point x="256" y="580"/>
      <point x="364" y="580" type="curve"/>
      <point x="427" y="580"/>
      <point x="454" y="530"/>
      <point x="454" y="452" type="curve"/>
      <point x="454" y="292"/>
      <point x="369" y="110"/>
      <point x="264" y="110" type="curve"/>
      <point x="200" y="110"/>
      <point x="172" y="163"/>
    </contour>
  </outline>
</glyph>
<glyph name="six" format="1">
  <advance width="600.0"/>
  <unicode hex="0036"/>
  <outline>
    <contour>
      <point x="47" y="250" type="curve"/>
      <point x="47" y="91"/>
      <point x="140" y="-11"/>
      <point x="278" y="-11" type="curve"/>
      <point x="447" y="-11"/>
      <point x="550" y="131"/>
      <point x="550" y="261" type="curve"/>
      <point x="550" y="377"/>
      <point x="472" y="447"/>
      <point x="366" y="447" type="curve"/>
      <point x="295" y="447"/>
      <point x="234" y="413"/>
      <point x="187" y="362" type="curve"/>
      <point x="172" y="265" type="line"/>
      <point x="212" y="307"/>
      <point x="269" y="339"/>
      <point x="330" y="339" type="curve"/>
      <point x="385" y="339"/>
      <point x="422" y="305"/>
      <point x="422" y="250" type="curve"/>
      <point x="422" y="169"/>
      <point x="361" y="104"/>
      <point x="288" y="104" type="curve"/>
      <point x="224" y="104"/>
      <point x="179" y="156"/>
      <point x="179" y="239" type="curve"/>
      <point x="179" y="458"/>
      <point x="312" y="587"/>
      <point x="439" y="587" type="curve"/>
      <point x="475" y="587"/>
      <point x="516" y="576"/>
      <point x="544" y="549" type="curve"/>
      <point x="611" y="653" type="line"/>
      <point x="568" y="686"/>
      <point x="516" y="701"/>
      <point x="451" y="701" type="curve"/>
      <point x="230" y="701"/>
      <point x="47" y="501"/>
    </contour>
  </outline>
</glyph>
<glyph name="seven" format="1">
  <advance width="600.0"/>
  <unicode hex="0037"/>
  <outline>
    <contour>
      <point x="81" y="0" type="line"/>
      <point x="234" y="0" type="line"/>
      <point x="596" y="601" type="line"/>
      <point x="510" y="690" type="line"/>
    </contour>
    <contour>
      <point x="111" y="567" type="line"/>
      <point x="540" y="567" type="line"/>
      <point x="596" y="601" type="line"/>
      <point x="614" y="690" type="line"/>
      <point x="138" y="690" type="line"/>
    </contour>
  </outline>
</glyph>
<glyph name="colon" format="1">
  <advance width="245"/>
  <unicode hex="003A"/>
  <outline>
    <contour>
      <point x="-5" y="56" type="curve" smooth="yes"/>
      <point x="-5" y="15"/>
      <point x="22" y="-11"/>
      <point x="66" y="-11" type="curve" smooth="yes"/>
      <point x="116" y="-11"/>
      <point x="159" y="29"/>
      <point x="159" y="81" type="curve" smooth="yes"/>
      <point x="159" y="123"/>
      <point x="132" y="148"/>
      <point x="88" y="148" type="curve" smooth="yes"/>
      <point x="38" y="148"/>
      <point x="-5" y="108"/>
    </contour>
    <contour>
      <point x="77" y="440" type="curve" smooth="yes"/>
      <point x="77" y="399"/>
      <point x="105" y="373"/>
      <point x="148" y="373" type="curve" smooth="yes"/>
      <point x="198" y="373"/>
      <point x="242" y="413"/>
      <point x="242" y="465" type="curve" smooth="yes"/>
      <point x="242" y="507"/>
      <point x="214" y="532"/>
      <point x="171" y="532" type="curve" smooth="yes"/>
      <point x="121" y="532"/>
      <point x="77" y="492"/>
    </contour>
  </outline>
</glyph>
<glyph name="semicolon" format="1">
  <advance width="245"/>
  <unicode hex="003B"/>
  <outline>
    <contour>
      <point x="-43" y="-172" type="line"/>
      <point x="33" y="-172" type="line"/>
      <point x="117" y="-36" type="line" smooth="yes"/>
      <point x="143" y="6"/>
      <point x="161" y="39"/>
      <point x="161" y="76" type="curve"/>
      <point x="161" y="122"/>
      <point x="130" y="148"/>
      <point x="87" y="148" type="curve"/>
      <point x="38" y="148"/>
      <point x="-4" y="111"/>
      <point x="-4" y="59" type="curve" smooth="yes"/>
      <point x="-4" y="24"/>
      <point x="20" y="0"/>
      <point x="35" y="-5" type="curve"/>
    </contour>
    <contour>
      <point x="77" y="440" type="curve" smooth="yes"/>
      <point x="77" y="399"/>
      <point x="105" y="373"/>
      <point x="148" y="373" type="curve" smooth="yes"/>
      <point x="198" y="373"/>
      <point x="242" y="413"/>
      <point x="242" y="465" type="curve" smooth="yes"/>
      <point x="242" y="507"/>
      <point x="214" y="532"/>
      <point x="171" y="532" type="curve" smooth="yes"/>
      <point x="121" y="532"/>
      <point x="77" y="492"/>
    </contour>
  </outline>
</glyph>
<glyph name="greater" format="1">
  <advance width="600.0"/>
  <unicode hex="003E"/>
  <outline>
    <contour>
      <point x="44" y="45" type="line"/>
      <point x="516" y="237" type="line"/>
      <point x="534" y="318" type="line"/>
      <point x="441" y="323" type="line"/>
      <point x="71" y="173" type="line"/>
    </contour>
    <contour>
      <point x="122" y="408" type="line"/>
      <point x="431" y="271" type="line"/>
      <point x="520" y="254" type="line"/>
      <point x="538" y="341" type="line"/>
      <point x="148" y="532" type="line"/>
    </contour>
  </outline>
</glyph>
<glyph name="question" format="1">
  <advance width="507"/>
  <unicode hex="003F"/>
  <outline>
    <contour>
      <point x="120" y="56" type="curve" smooth="yes"/>
      <point x="120" y="15"/>
      <point x="148" y="-11"/>
      <point x="191" y="-11" type="curve" smooth="yes"/>
      <point x="241" y="-11"/>
      <point x="285" y="29"/>
      <point x="285" y="81" type="curve" smooth="yes"/>
      <point x="285" y="123"/>
      <point x="257" y="148"/>
      <point x="214" y="148" type="curve" smooth="yes"/>
      <point x="164" y="148"/>
      <point x="120" y="108"/>
    </contour>
    <contour>
      <point x="80" y="590" type="curve"/>
      <point x="145" y="501" type="line"/>
      <point x="197" y="551"/>
      <point x="242" y="577"/>
      <point x="294" y="577" type="curve"/>
      <point x="342" y="577"/>
      <point x="370" y="549"/>
      <point x="369" y="515" type="curve"/>
      <point x="368" y="474"/>
      <point x="347" y="449"/>
      <point x="271" y="398" type="curve" smooth="yes"/>
      <point x="228" y="369"/>
      <point x="196" y="335"/>
      <point x="195" y="281" type="curve" smooth="yes"/>
      <point x="192" y="228" type="line"/>
      <point x="285" y="228" type="line"/>
      <point x="295" y="264" type="line" smooth="yes"/>
      <point x="303" y="292"/>
      <point x="324" y="311"/>
      <point x="347" y="325" type="curve" smooth="yes"/>
      <point x="462" y="400"/>
      <point x="512" y="458"/>
      <point x="512" y="544" type="curve"/>
      <point x="512" y="637"/>
      <point x="438" y="701"/>
      <point x="328" y="701" type="curve"/>
      <point x="234" y="701"/>
      <point x="146" y="657"/>
    </contour>
  </outline>
</glyph>
<glyph name="at" format="1">
  <advance width="999"/>
  <unicode hex="0040"/>
  <outline>
    <contour>
      <point x="38" y="159" type="curve" smooth="yes"/>
      <point x="38" y="-49"/>
      <point x="172" y="-196"/>
      <point x="425" y="-196" type="curve" smooth="yes"/>
      <point x="506" y="-196"/>
      <point x="584" y="-180"/>
      <point x="653" y="-158" type="curve"/>
      <point x="638" y="-63" type="line"/>
      <point x="581" y="-83"/>
      <point x="500" y="-99"/>
      <point x="433" y="-99" type="curve" smooth="yes"/>
      <point x="231" y="-99"/>
      <point x="146" y="24"/>
      <point x="146" y="166" type="curve" smooth="yes"/>
      <point x="146" y="403"/>
      <point x="325" y="606"/>
      <point x="572" y="606" type="curve" smooth="yes"/>
      <point x="746" y="606"/>
      <point x="848" y="520"/>
      <point x="848" y="350" type="curve"/>
      <point x="848" y="210"/>
      <point x="776" y="84"/>
      <point x="714" y="84" type="curve"/>
      <point x="683" y="84"/>
      <point x="665" y="114"/>
      <point x="678" y="173" type="curve" smooth="yes"/>
      <point x="750" y="494" type="line"/>
      <point x="635" y="494" type="line"/>
      <point x="609" y="434" type="line"/>
      <point x="570" y="253" type="line" smooth="yes"/>
      <point x="552" y="169"/>
      <point x="491" y="104"/>
      <point x="429" y="104" type="curve"/>
      <point x="384" y="104"/>
      <point x="361" y="137"/>
      <point x="361" y="195" type="curve"/>
      <point x="361" y="292"/>
      <point x="413" y="401"/>
      <point x="509" y="401" type="curve" smooth="yes"/>
      <point x="551" y="401"/>
      <point x="586" y="383"/>
      <point x="612" y="345" type="curve"/>
      <point x="631" y="443" type="line"/>
      <point x="598" y="480"/>
      <point x="558" y="502"/>
      <point x="502" y="502" type="curve" smooth="yes"/>
      <point x="347" y="502"/>
      <point x="233" y="348"/>
      <point x="233" y="180" type="curve"/>
      <point x="233" y="72"/>
      <point x="287" y="-6"/>
      <point x="390" y="-6" type="curve"/>
      <point x="465" y="-6"/>
      <point x="535" y="44"/>
      <point x="567" y="95" type="curve"/>
      <point x="548" y="112" type="line"/>
      <point x="557" y="39"/>
      <point x="607" y="-14"/>
      <point x="690" y="-14" type="curve"/>
      <point x="849" y="-14"/>
      <point x="952" y="165"/>
      <point x="952" y="354" type="curve"/>
      <point x="952" y="582"/>
      <point x="793" y="701"/>
      <point x="580" y="701" type="curve" smooth="yes"/>
      <point x="277" y="701"/>
      <point x="38" y="471"/>
    </contour>
  </outline>
</glyph>
<glyph name="A" format="1">
  <advance width="629"/>
  <unicode hex="0041"/>
  <outline>
    <contour>
      <point x="-56" y="0" type="line"/>
      <point x="89" y="0" type="line"/>
      <point x="397" y="562" type="line"/>
      <point x="415" y="690" type="line"/>
      <point x="350" y="690" type="line"/>
    </contour>
    <contour>
      <point x="137" y="159" type="line"/>
      <point x="455" y="159" type="line"/>
      <point x="478" y="267" type="line"/>
      <point x="160" y="267" type="line"/>
    </contour>
    <contour>
      <point x="361" y="562" type="line"/>
      <point x="431" y="0" type="line"/>
      <point x="565" y="0" type="line"/>
      <point x="455" y="690" type="line"/>
      <point x="391" y="690" type="line"/>
    </contour>
    <contour>
      <point x="400" y="690" type="move" name="top"/>
    </contour>
    <contour>
      <point x="431" y="0" type="move" name="ogonek"/>
    </contour>
    <contour>
      <point x="259" y="0" type="move" name="bottom"/>
    </contour>
  </outline>
</glyph>
<glyph name="B" format="1">
  <advance width="623"/>
  <unicode hex="0042"/>
  <outline>
    <contour>
      <point x="21" y="0" type="line"/>
      <point x="156" y="0" type="line"/>
      <point x="303" y="690" type="line"/>
      <point x="168" y="690" type="line"/>
    </contour>
    <contour>
      <point x="84" y="0" type="line"/>
      <point x="280" y="0" type="line" smooth="yes"/>
      <point x="443" y="0"/>
      <point x="559" y="94"/>
      <point x="559" y="220" type="curve"/>
      <point x="559" y="319"/>
      <point x="476" y="383"/>
      <point x="355" y="383" type="curve" smooth="yes"/>
      <point x="165" y="383" type="line"/>
      <point x="147" y="301" type="line"/>
      <point x="332" y="301" type="line" smooth="yes"/>
      <point x="389" y="301"/>
      <point x="425" y="273"/>
      <point x="425" y="222" type="curve"/>
      <point x="425" y="162"/>
      <point x="371" y="110"/>
      <point x="292" y="110" type="curve" smooth="yes"/>
      <point x="108" y="110" type="line"/>
    </contour>
    <contour>
      <point x="154" y="331" type="line"/>
      <point x="321" y="331" type="line" smooth="yes"/>
      <point x="473" y="331"/>
      <point x="597" y="417"/>
      <point x="597" y="532" type="curve"/>
      <point x="597" y="628"/>
      <point x="517" y="690"/>
      <point x="403" y="690" type="curve" smooth="yes"/>
      <point x="231" y="690" type="line"/>
      <point x="206" y="580" type="line"/>
      <point x="371" y="580" type="line" smooth="yes"/>
      <point x="426" y="580"/>
      <point x="461" y="553"/>
      <point x="461" y="507" type="curve"/>
      <point x="461" y="453"/>
      <point x="412" y="401"/>
      <point x="335" y="401" type="curve" smooth="yes"/>
      <point x="170" y="401" type="line"/>
    </contour>
  </outline>
</glyph>
<glyph name="G" format="1">
  <advance width="688"/>
  <unicode hex="0047"/>
  <outline>
    <contour>
      <point x="52" y="245" type="curve" smooth="yes"/>
      <point x="52" y="83"/>
      <point x="157" y="-11"/>
      <point x="314" y="-11" type="curve"/>
      <point x="408" y="-11"/>
      <point x="512" y="25"/>
      <point x="583" y="83" type="curve"/>
      <point x="502" y="156" type="line"/>
      <point x="459" y="125"/>
      <point x="393" y="104"/>
      <point x="339" y="104" type="curve"/>
      <point x="246" y="104"/>
      <point x="191" y="159"/>
      <point x="191" y="263" type="curve" smooth="yes"/>
      <point x="191" y="438"/>
      <point x="303" y="576"/>
      <point x="435" y="576" type="curve" smooth="yes"/>
      <point x="490" y="576"/>
      <point x="532" y="557"/>
      <point x="568" y="519" type="curve"/>
      <point x="667" y="617" type="line"/>
      <point x="603" y="675"/>
      <point x="536" y="701"/>
      <point x="459" y="701" type="curve" smooth="yes"/>
      <point x="235" y="701"/>
      <point x="52" y="493"/>
    </contour>
    <contour>
      <point x="355" y="256" type="line"/>
      <point x="562" y="256" type="line"/>
      <point x="585" y="368" type="line"/>
      <point x="378" y="368" type="line"/>
    </contour>
    <contour>
      <point x="451" y="74" type="line"/>
      <point x="583" y="83" type="line"/>
      <point x="644" y="368" type="line"/>
      <point x="513" y="368" type="line"/>
    </contour>
    <contour>
      <point x="445" y="690" type="move" name="top"/>
    </contour>
    <contour>
      <point x="314" y="0" type="move" name="bottom"/>
    </contour>
  </outline>
</glyph>
<glyph name="H" format="1">
  <advance width="724"/>
  <unicode hex="0048"/>
  <outline>
    <contour>
      <point x="21" y="0" type="line"/>
      <point x="156" y="0" type="line"/>
      <point x="303" y="690" type="line"/>
      <point x="168" y="690" type="line"/>
    </contour>
    <contour>
      <point x="145" y="289" type="line"/>
      <point x="581" y="289" type="line"/>
      <point x="607" y="407" type="line"/>
      <point x="171" y="407" type="line"/>
    </contour>
    <contour>
      <point x="448" y="0" type="line"/>
      <point x="582" y="0" type="line"/>
      <point x="729" y="690" type="line"/>
      <point x="595" y="690" type="line"/>
    </contour>
    <contour>
      <point x="447" y="690" type="move" name="top"/>
    </contour>
  </outline>
</glyph>
<glyph name="I" format="1">
  <advance width="440"/>
  <unicode hex="0049"/>
  <outline>
    <contour>
      <point x="-2" y="0" type="line"/>
      <point x="321" y="0" type="line"/>
      <point x="343" y="102" type="line"/>
      <point x="20" y="102" type="line"/>
    </contour>
    <contour>
      <point x="92" y="0" type="line"/>
      <point x="227" y="0" type="line"/>
      <point x="374" y="690" type="line"/>
      <point x="239" y="690" type="line"/>
    </contour>
    <contour>
      <point x="123" y="588" type="line"/>
      <point x="446" y="588" type="line"/>
      <point x="468" y="690" type="line"/>
      <point x="145" y="690" type="line"/>
    </contour>
    <contour>
      <point x="307" y="690" type="move" name="top"/>
    </contour>
    <contour>
      <point x="92" y="0" type="move" name="ogonek"/>
    </contour>
    <contour>
      <point x="160" y="0" type="move" name="bottom"/>
    </contour>
  </outline>
</glyph>
<glyph name="J" format="1">
  <advance width="534"/>
  <unicode hex="004A"/>
  <outline>
    <contour>
      <point x="-24" y="68" type="line"/>
      <point x="23" y="18"/>
      <point x="87" y="-11"/>
      <point x="173" y="-11" type="curve"/>
      <point x="300" y="-11"/>
      <point x="414" y="65"/>
      <point x="451" y="237" type="curve" smooth="yes"/>
      <point x="547" y="690" type="line"/>
      <point x="416" y="690" type="line"/>
      <point x="322" y="253" type="line" smooth="yes"/>
      <point x="301" y="152"/>
      <point x="242" y="110"/>
      <point x="172" y="110" type="curve"/>
      <point x="125" y="110"/>
      <point x="85" y="130"/>
      <point x="54" y="164" type="curve"/>
    </contour>
    <contour>
      <point x="222" y="588" type="line"/>
      <point x="478" y="588" type="line"/>
      <point x="500" y="690" type="line"/>
      <point x="244" y="690" type="line"/>
    </contour>
    <contour>
      <point x="402" y="690" type="move" name="top"/>
    </contour>
  </outline>
</glyph>
<glyph name="L" format="1">
  <advance width="553"/>
  <unicode hex="004C"/>
  <outline>
    <contour>
      <point x="21" y="0" type="line"/>
      <point x="156" y="0" type="line"/>
      <point x="303" y="690" type="line"/>
      <point x="168" y="690" type="line"/>
    </contour>
    <contour>
      <point x="84" y="0" type="line"/>
      <point x="468" y="0" type="line"/>
      <point x="494" y="118" type="line"/>
      <point x="109" y="118" type="line"/>
    </contour>
    <contour>
      <point x="235" y="690" type="move" name="top"/>
    </contour>
    <contour>
      <point x="452" y="680" type="move" name="caron.alt"/>
    </contour>
    <contour>
      <point x="260" y="0" type="move" name="bottom"/>
    </contour>
  </outline>
</glyph>
<glyph name="M" format="1">
  <advance width="826"/>
  <unicode hex="004D"/>
  <outline>
    <contour>
      <point x="21" y="0" type="line"/>
      <point x="151" y="0" type="line"/>
      <point x="298" y="690" type="line"/>
      <point x="168" y="690" type="line"/>
    </contour>
    <contour>
      <point x="237" y="690" type="line"/>
      <point x="339" y="150" type="line"/>
      <point x="390" y="150" type="line"/>
      <point x="424" y="309" type="line"/>
      <point x="354" y="690" type="line"/>
    </contour>
    <contour>
      <point x="376" y="150" type="line"/>
      <point x="432" y="150" type="line"/>
      <point x="764" y="690" type="line"/>
      <point x="634" y="690" type="line"/>
      <point x="410" y="309" type="line"/>
    </contour>
    <contour>
      <point x="555" y="0" type="line"/>
      <point x="685" y="0" type="line"/>
      <point x="831" y="690" type="line"/>
      <point x="702" y="690" type="line"/>
    </contour>
  </outline>
</glyph>
<glyph name="P" format="1">
  <advance width="621"/>
  <unicode hex="0050"/>
  <outline>
    <contour>
      <point x="21" y="0" type="line"/>
      <point x="156" y="0" type="line"/>
      <point x="303" y="690" type="line"/>
      <point x="168" y="690" type="line"/>
    </contour>
    <contour>
      <point x="127" y="206" type="line"/>
      <point x="296" y="206" type="line" smooth="yes"/>
      <point x="490" y="206"/>
      <point x="622" y="324"/>
      <point x="622" y="484" type="curve" smooth="yes"/>
      <point x="622" y="608"/>
      <point x="528" y="690"/>
      <point x="392" y="690" type="curve" smooth="yes"/>
      <point x="231" y="690" type="line"/>
      <point x="205" y="573" type="line"/>
      <point x="360" y="573" type="line" smooth="yes"/>
      <point x="441" y="573"/>
      <point x="483" y="536"/>
      <point x="483" y="472" type="curve"/>
      <point x="483" y="384"/>
      <point x="415" y="322"/>
      <point x="303" y="322" type="curve" smooth="yes"/>
      <point x="153" y="322" type="line"/>
    </contour>
  </outline>
</glyph>
<glyph name="V" format="1">
  <advance width="623"/>
  <unicode hex="0056"/>
  <outline>
    <contour>
      <point x="91" y="690" type="line"/>
      <point x="199" y="0" type="line"/>
      <point x="263" y="0" type="line"/>
      <point x="292" y="128" type="line"/>
      <point x="226" y="690" type="line"/>
    </contour>
    <contour>
      <point x="238" y="0" type="line"/>
      <point x="303" y="0" type="line"/>
      <point x="706" y="690" type="line"/>
      <point x="563" y="690" type="line"/>
      <point x="256" y="128" type="line"/>
    </contour>
  </outline>
</glyph>
<glyph name="X" format="1">
  <advance width="590.0"/>
  <unicode hex="0058"/>
  <outline>
    <contour>
      <point x="-50" y="0" type="line"/>
      <point x="105" y="0" type="line"/>
      <point x="304" y="265" type="line"/>
      <point x="363" y="323" type="line"/>
      <point x="657" y="690" type="line"/>
      <point x="502" y="690" type="line"/>
      <point x="316" y="442" type="line"/>
      <point x="259" y="383" type="line"/>
    </contour>
    <contour>
      <point x="107" y="690" type="line"/>
      <point x="263" y="300" type="line"/>
      <point x="375" y="0" type="line"/>
      <point x="520" y="0" type="line"/>
      <point x="358" y="405" type="line"/>
      <point x="252" y="690" type="line"/>
    </contour>
  </outline>
</glyph>
<glyph name="Y" format="1">
  <advance width="625"/>
  <unicode hex="0059"/>
  <outline>
    <contour>
      <point x="86" y="690" type="line"/>
      <point x="252" y="265" type="line"/>
      <point x="323" y="265" type="line"/>
      <point x="343" y="377" type="line"/>
      <point x="231" y="690" type="line"/>
    </contour>
    <contour>
      <point x="185" y="0" type="line"/>
      <point x="319" y="0" type="line"/>
      <point x="383" y="295" type="line"/>
      <point x="248" y="295" type="line"/>
    </contour>
    <contour>
      <point x="301" y="265" type="line"/>
      <point x="365" y="265" type="line"/>
      <point x="712" y="690" type="line"/>
      <point x="553" y="690" type="line"/>
      <point x="312" y="377" type="line"/>
    </contour>
    <contour>
      <point x="390" y="690" type="move" name="top"/>
    </contour>
  </outline>
</glyph>
<glyph name="Z" format="1">
  <advance width="614"/>
  <unicode hex="005A"/>
  <outline>
    <contour>
      <point x="-9" y="0" type="line"/>
      <point x="502" y="0" type="line"/>
      <point x="527" y="118" type="line"/>
      <point x="64" y="118" type="line"/>
      <point x="10" y="89" type="line"/>
    </contour>
    <contour>
      <point x="10" y="89" type="line"/>
      <point x="101" y="0" type="line"/>
      <point x="621" y="601" type="line"/>
      <point x="531" y="690" type="line"/>
    </contour>
    <contour>
      <point x="123" y="572" type="line"/>
      <point x="567" y="572" type="line"/>
      <point x="621" y="601" type="line"/>
      <point x="640" y="690" type="line"/>
      <point x="148" y="690" type="line"/>
    </contour>
    <contour>
      <point x="382" y="690" type="move" name="top"/>
    </contour>
  </outline>
</glyph>
<glyph name="bracketleft" format="1">
  <advance width="300"/>
  <unicode hex="005B"/>
  <outline>
    <contour>
      <point x="-38" y="-277" type="line"/>
      <point x="81" y="-277" type="line"/>
      <point x="312" y="812" type="line"/>
      <point x="194" y="812" type="line"/>
    </contour>
    <contour>
      <point x="-31" y="-277" type="line"/>
      <point x="226" y="-277" type="line"/>
      <point x="248" y="-175" type="line"/>
      <point x="-9" y="-175" type="line"/>
    </contour>
    <contour>
      <point x="179" y="710" type="line"/>
      <point x="436" y="710" type="line"/>
      <point x="457" y="812" type="line"/>
      <point x="200" y="812" type="line"/>
    </contour>
  </outline>
</glyph>
<glyph name="bracketright" format="1">
  <advance width="300"/>
  <unicode hex="005D"/>
  <outline>
    <contour>
      <point x="-164" y="-277" type="line"/>
      <point x="93" y="-277" type="line"/>
      <point x="115" y="-175" type="line"/>
      <point x="-142" y="-175" type="line"/>
    </contour>
    <contour>
      <point x="-19" y="-277" type="line"/>
      <point x="99" y="-277" type="line"/>
      <point x="331" y="812" type="line"/>
      <point x="212" y="812" type="line"/>
    </contour>
    <contour>
      <point x="46" y="710" type="line"/>
      <point x="303" y="710" type="line"/>
      <point x="324" y="812" type="line"/>
      <point x="67" y="812" type="line"/>
    </contour>
  </outline>
</glyph>
<glyph name="grave" format="1">
  <advance width="600.0"/>
  <unicode hex="0060"/>
  <outline>
    <contour>
      <point x="222" y="746" type="line"/>
      <point x="318" y="596" type="line"/>
      <point x="421" y="596" type="line"/>
      <point x="351" y="746" type="line"/>
    </contour>
    <contour>
      <point x="351" y="521" type="move" name="_top"/>
    </contour>
  </outline>
</glyph>
<glyph name="a" format="1">
  <advance width="591"/>
  <unicode hex="0061"/>
  <outline>
    <contour>
      <point x="29" y="184" type="curve"/>
      <point x="29" y="65"/>
      <point x="95" y="-11"/>
      <point x="188" y="-11" type="curve"/>
      <point x="263" y="-11"/>
      <point x="330" y="30"/>
      <point x="371" y="101" type="curve"/>
      <point x="354" y="111" type="line"/>
      <point x="353" y="0" type="line"/>
      <point x="475" y="0" type="line"/>
      <point x="475" y="43" type="line" smooth="yes"/>
      <point x="475" y="73"/>
      <point x="477" y="95"/>
      <point x="483" y="124" type="curve" smooth="yes"/>
      <point x="567" y="521" type="line"/>
      <point x="452" y="521" type="line"/>
      <point x="429" y="470" type="line"/>
      <point x="389" y="278" type="line" smooth="yes"/>
      <point x="364" y="166"/>
      <point x="290" y="101"/>
      <point x="227" y="101" type="curve"/>
      <point x="185" y="101"/>
      <point x="159" y="131"/>
      <point x="159" y="199" type="curve"/>
      <point x="159" y="311"/>
      <point x="226" y="428"/>
      <point x="319" y="428" type="curve"/>
      <point x="362" y="428"/>
      <point x="400" y="407"/>
      <point x="432" y="368" type="curve"/>
      <point x="450" y="474" type="line"/>
      <point x="413" y="512"/>
      <point x="362" y="532"/>
      <point x="308" y="532" type="curve"/>
      <point x="161" y="532"/>
      <point x="29" y="370"/>
    </contour>
    <contour>
      <point x="355" y="521" type="move" name="top"/>
    </contour>
    <contour>
      <point x="353" y="0" type="move" name="ogonek"/>
    </contour>
    <contour>
      <point x="250" y="0" type="move" name="bottom"/>
    </contour>
  </outline>
</glyph>
<glyph name="b" format="1">
  <advance width="589"/>
  <unicode hex="0062"/>
  <outline>
    <contour>
      <point x="14" y="0" type="line"/>
      <point x="129" y="0" type="line"/>
      <point x="151" y="52" type="line"/>
      <point x="192" y="243" type="line" smooth="yes"/>
      <point x="216" y="356"/>
      <point x="291" y="421"/>
      <point x="353" y="421" type="curve"/>
      <point x="395" y="421"/>
      <point x="422" y="390"/>
      <point x="422" y="322" type="curve"/>
      <point x="422" y="210"/>
      <point x="355" y="94"/>
      <point x="261" y="94" type="curve"/>
      <point x="218" y="94"/>
      <point x="181" y="114"/>
      <point x="149" y="153" type="curve"/>
      <point x="130" y="47" type="line"/>
      <point x="168" y="9"/>
      <point x="219" y="-11"/>
      <point x="272" y="-11" type="curve"/>
      <point x="419" y="-11"/>
      <point x="552" y="151"/>
      <point x="552" y="337" type="curve"/>
      <point x="552" y="456"/>
      <point x="485" y="532"/>
      <point x="393" y="532" type="curve"/>
      <point x="318" y="532"/>
      <point x="253" y="491"/>
      <point x="211" y="421" type="curve"/>
      <point x="227" y="410" type="line"/>
      <point x="296" y="734" type="line"/>
      <point x="166" y="715" type="line"/>
    </contour>
  </outline>
</glyph>
<glyph name="c" format="1">
  <advance width="488"/>
  <unicode hex="0063"/>
  <outline>
    <contour>
      <point x="28" y="182" type="curve" smooth="yes"/>
      <point x="28" y="67"/>
      <point x="104" y="-11"/>
      <point x="219" y="-11" type="curve"/>
      <point x="291" y="-11"/>
      <point x="356" y="14"/>
      <point x="424" y="65" type="curve"/>
      <point x="369" y="155" type="line"/>
      <point x="330" y="122"/>
      <point x="287" y="100"/>
      <point x="244" y="100" type="curve"/>
      <point x="190" y="100"/>
      <point x="158" y="134"/>
      <point x="158" y="199" type="curve" smooth="yes"/>
      <point x="158" y="305"/>
      <point x="222" y="421"/>
      <point x="312" y="421" type="curve" smooth="yes"/>
      <point x="345" y="421"/>
      <point x="377" y="407"/>
      <point x="398" y="380" type="curve"/>
      <point x="478" y="464" type="line"/>
      <point x="447" y="503"/>
      <point x="389" y="532"/>
      <point x="328" y="532" type="curve" smooth="yes"/>
      <point x="154" y="532"/>
      <point x="28" y="366"/>
    </contour>
    <contour>
      <point x="320" y="521" type="move" name="top"/>
    </contour>
    <contour>
      <point x="220" y="0" type="move" name="bottom"/>
    </contour>
  </outline>
</glyph>
<glyph name="e" format="1">
  <advance width="531"/>
  <unicode hex="0065"/>
  <outline>
    <contour>
      <point x="27" y="178" type="curve" smooth="yes"/>
      <point x="27" y="63"/>
      <point x="107" y="-11"/>
      <point x="230" y="-11" type="curve" smooth="yes"/>
      <point x="312" y="-11"/>
      <point x="374" y="16"/>
      <point x="445" y="69" type="curve"/>
      <point x="390" y="154" type="line"/>
      <point x="349" y="120"/>
      <point x="296" y="97"/>
      <point x="245" y="97" type="curve" smooth="yes"/>
      <point x="189" y="97"/>
      <point x="157" y="131"/>
      <point x="157" y="197" type="curve" smooth="yes"/>
      <point x="157" y="305"/>
      <point x="224" y="428"/>
      <point x="322" y="428" type="curve" smooth="yes"/>
      <point x="358" y="428"/>
      <point x="380" y="409"/>
      <point x="380" y="378" type="curve" smooth="yes"/>
      <point x="380" y="338"/>
      <point x="343" y="302"/>
      <point x="172" y="302" type="curve" smooth="yes"/>
      <point x="159" y="302"/>
      <point x="144" y="303"/>
      <point x="129" y="304" type="curve"/>
      <point x="116" y="223" type="line"/>
      <point x="140" y="221"/>
      <point x="160" y="220"/>
      <point x="181" y="220" type="curve" smooth="yes"/>
      <point x="364" y="220"/>
      <point x="506" y="260"/>
      <point x="506" y="391" type="curve" smooth="yes"/>
      <point x="506" y="471"/>
      <point x="438" y="532"/>
      <point x="339" y="532" type="curve" smooth="yes"/>
      <point x="152" y="532"/>
      <point x="27" y="365"/>
    </contour>
    <contour>
      <point x="335" y="521" type="move" name="top"/>
    </contour>
    <contour>
      <point x="291" y="0" type="move" name="ogonek"/>
    </contour>
    <contour>
      <point x="230" y="0" type="move" name="bottom"/>
    </contour>
  </outline>
</glyph>
<glyph name="f" format="1">
  <advance width="371"/>
  <unicode hex="0066"/>
  <outline>
    <contour>
      <point x="46" y="0" type="line"/>
      <point x="173" y="0" type="line"/>
      <point x="287" y="537" type="line" smooth="yes"/>
      <point x="299" y="596"/>
      <point x="330" y="625"/>
      <point x="373" y="625" type="curve" smooth="yes"/>
      <point x="396" y="625"/>
      <point x="420" y="621"/>
      <point x="441" y="611" type="curve"/>
      <point x="479" y="709" type="line"/>
      <point x="450" y="722"/>
      <point x="411" y="731"/>
      <point x="373" y="731" type="curve" smooth="yes"/>
      <point x="260" y="731"/>
      <point x="188" y="670"/>
      <point x="162" y="548" type="curve" smooth="yes"/>
    </contour>
    <contour>
      <point x="45" y="423" type="line"/>
      <point x="401" y="423" type="line"/>
      <point x="422" y="521" type="line"/>
      <point x="66" y="521" type="line"/>
    </contour>
  </outline>
</glyph>
<glyph name="i" format="1">
  <advance width="274"/>
  <unicode hex="0069"/>
  <outline>
    <contour>
      <point x="14" y="0" type="line"/>
      <point x="141" y="0" type="line"/>
      <point x="251" y="521" type="line"/>
      <point x="125" y="521" type="line"/>
    </contour>
    <contour>
      <point x="142" y="664" type="curve"/>
      <point x="142" y="628"/>
      <point x="168" y="599"/>
      <point x="209" y="599" type="curve"/>
      <point x="260" y="599"/>
      <point x="301" y="642"/>
      <point x="301" y="692" type="curve"/>
      <point x="301" y="728"/>
      <point x="276" y="757"/>
      <point x="235" y="757" type="curve"/>
      <point x="183" y="757"/>
      <point x="142" y="714"/>
    </contour>
    <contour>
      <point x="14" y="0" type="move" name="ogonek"/>
    </contour>
    <contour>
      <point x="77" y="0" type="move" name="bottom"/>
    </contour>
  </outline>
</glyph>
<glyph name="j" format="1">
  <advance width="274"/>
  <unicode hex="006A"/>
  <outline>
    <contour>
      <point x="-158" y="-177" type="line"/>
      <point x="-135" y="-188"/>
      <point x="-104" y="-196"/>
      <point x="-67" y="-196" type="curve"/>
      <point x="39" y="-196"/>
      <point x="112" y="-137"/>
      <point x="138" y="-14" type="curve" smooth="yes"/>
      <point x="251" y="521" type="line"/>
      <point x="125" y="521" type="line"/>
      <point x="11" y="-11" type="line" smooth="yes"/>
      <point x="-1" y="-71"/>
      <point x="-33" y="-92"/>
      <point x="-75" y="-92" type="curve"/>
      <point x="-93" y="-92"/>
      <point x="-111" y="-87"/>
      <point x="-127" y="-79" type="curve"/>
    </contour>
    <contour>
      <point x="142" y="664" type="curve"/>
      <point x="142" y="628"/>
      <point x="168" y="599"/>
      <point x="209" y="599" type="curve"/>
      <point x="260" y="599"/>
      <point x="301" y="642"/>
      <point x="301" y="692" type="curve"/>
      <point x="301" y="728"/>
      <point x="276" y="757"/>
      <point x="235" y="757" type="curve"/>
      <point x="183" y="757"/>
      <point x="142" y="714"/>
    </contour>
  </outline>
</glyph>
<glyph name="k" format="1">
  <advance width="540"/>
  <unicode hex="006B"/>
  <outline>
    <contour>
      <point x="14" y="0" type="line"/>
      <point x="141" y="0" type="line"/>
      <point x="297" y="734" type="line"/>
      <point x="166" y="715" type="line"/>
    </contour>
    <contour>
      <point x="122" y="117" type="line"/>
      <point x="578" y="521" type="line"/>
      <point x="411" y="521" type="line"/>
      <point x="155" y="274" type="line"/>
    </contour>
    <contour>
      <point x="226" y="266" type="line"/>
      <point x="340" y="0" type="line"/>
      <point x="476" y="0" type="line"/>
      <point x="319" y="344" type="line"/>
    </contour>
    <contour>
      <point x="247" y="0" type="move" name="bottom"/>
    </contour>
  </outline>
</glyph>
<glyph name="n" format="1">
  <advance width="607"/>
  <unicode hex="006E"/>
  <outline>
    <contour>
      <point x="15" y="0" type="line"/>
      <point x="142" y="0" type="line"/>
      <point x="193" y="243" type="line" smooth="yes"/>
      <point x="217" y="356"/>
      <point x="295" y="421"/>
      <point x="354" y="421" type="curve"/>
      <point x="397" y="421"/>
      <point x="423" y="399"/>
      <point x="423" y="351" type="curve" smooth="yes"/>
      <point x="423" y="340"/>
      <point x="421" y="328"/>
      <point x="418" y="314" type="curve" smooth="yes"/>
      <point x="351" y="0" type="line"/>
      <point x="478" y="0" type="line"/>
      <point x="545" y="313" type="line" smooth="yes"/>
      <point x="550" y="335"/>
      <point x="552" y="355"/>
      <point x="552" y="373" type="curve" smooth="yes"/>
      <point x="552" y="473"/>
      <point x="487" y="532"/>
      <point x="401" y="532" type="curve"/>
      <point x="320" y="532"/>
      <point x="252" y="491"/>
      <point x="211" y="421" type="curve"/>
      <point x="227" y="410" type="line"/>
      <point x="228" y="521" type="line"/>
      <point x="107" y="521" type="line"/>
      <point x="107" y="478" type="line" smooth="yes"/>
      <point x="107" y="448"/>
      <point x="105" y="426"/>
      <point x="99" y="397" type="curve" smooth="yes"/>
    </contour>
    <contour>
      <point x="352" y="521" type="move" name="top"/>
    </contour>
    <contour>
      <point x="253" y="0" type="move" name="bottom"/>
    </contour>
  </outline>
</glyph>
<glyph name="s" format="1">
  <advance width="471"/>
  <unicode hex="0073"/>
  <outline>
    <contour>
      <point x="-17" y="55" type="line"/>
      <point x="38" y="15"/>
      <point x="117" y="-11"/>
      <point x="189" y="-11" type="curve"/>
      <point x="336" y="-11"/>
      <point x="407" y="63"/>
      <point x="407" y="141" type="curve"/>
      <point x="407" y="212"/>
      <point x="371" y="258"/>
      <point x="262" y="318" type="curve" smooth="yes"/>
      <point x="210" y="346"/>
      <point x="196" y="362"/>
      <point x="196" y="382" type="curve"/>
      <point x="196" y="408"/>
      <point x="217" y="428"/>
      <point x="260" y="428" type="curve"/>
      <point x="306" y="428"/>
      <point x="358" y="404"/>
      <point x="393" y="377" type="curve"/>
      <point x="450" y="477" type="line"/>
      <point x="404" y="508"/>
      <point x="337" y="532"/>
      <point x="272" y="532" type="curve"/>
      <point x="143" y="532"/>
      <point x="66" y="460"/>
      <point x="66" y="374" type="curve"/>
      <point x="66" y="313"/>
      <point x="97" y="268"/>
      <point x="196" y="213" type="curve" smooth="yes"/>
      <point x="256" y="181"/>
      <point x="271" y="162"/>
      <point x="271" y="140" type="curve"/>
      <point x="271" y="119"/>
      <point x="251" y="97"/>
      <point x="202" y="97" type="curve"/>
      <point x="148" y="97"/>
      <point x="93" y="118"/>
      <point x="47" y="157" type="curve"/>
    </contour>
    <contour>
      <point x="279" y="521" type="move" name="top"/>
    </contour>
    <contour>
      <point x="179" y="0" type="move" name="bottom"/>
    </contour>
  </outline>
</glyph>
<glyph name="v" format="1">
  <advance width="503"/>
  <unicode hex="0076"/>
  <outline>
    <contour>
      <point x="55" y="521" type="line"/>
      <point x="142" y="0" type="line"/>
      <point x="217" y="0" type="line"/>
      <point x="237" y="70" type="line"/>
      <point x="185" y="521" type="line"/>
    </contour>
    <contour>
      <point x="167" y="0" type="line"/>
      <point x="242" y="0" type="line"/>
      <point x="550" y="521" type="line"/>
      <point x="411" y="521" type="line"/>
      <point x="179" y="70" type="line"/>
    </contour>
  </outline>
</glyph>
<glyph name="w" format="1">
  <advance width="767"/>
  <unicode hex="0077"/>
  <outline>
    <contour>
      <point x="61" y="521" type="line"/>
      <point x="119" y="0" type="line"/>
      <point x="195" y="0" type="line"/>
      <point x="212" y="87" type="line"/>
      <point x="190" y="521" type="line"/>
    </contour>
    <contour>
      <point x="145" y="0" type="line"/>
      <point x="218" y="0" type="line"/>
      <point x="423" y="377" type="line"/>
      <point x="453" y="521" type="line"/>
      <point x="383" y="521" type="line"/>
      <point x="161" y="87" type="line"/>
    </contour>
    <contour>
      <point x="381" y="377" type="line"/>
      <point x="424" y="0" type="line"/>
      <point x="504" y="0" type="line"/>
      <point x="521" y="87" type="line"/>
      <point x="482" y="521" type="line"/>
      <point x="410" y="521" type="line"/>
    </contour>
    <contour>
      <point x="454" y="0" type="line"/>
      <point x="527" y="0" type="line"/>
      <point x="807" y="521" type="line"/>
      <point x="671" y="521" type="line"/>
      <point x="470" y="87" type="line"/>
    </contour>
    <contour>
      <point x="431" y="521" type="move" name="top"/>
    </contour>
  </outline>
</glyph>
<glyph name="z" format="1">
  <advance width="480"/>
  <unicode hex="007A"/>
  <outline>
    <contour>
      <point x="-23" y="0" type="line"/>
      <point x="383" y="0" type="line"/>
      <point x="403" y="98" type="line"/>
      <point x="45" y="98" type="line"/>
      <point x="-8" y="73" type="line"/>
    </contour>
    <contour>
      <point x="-8" y="73" type="line"/>
      <point x="83" y="0" type="line"/>
      <point x="469" y="448" type="line"/>
      <point x="378" y="521" type="line"/>
    </contour>
    <contour>
      <point x="76" y="423" type="line"/>
      <point x="416" y="423" type="line"/>
      <point x="469" y="448" type="line"/>
      <point x="484" y="521" type="line"/>
      <point x="97" y="521" type="line"/>
    </contour>
    <contour>
      <point x="280" y="521" type="move" name="top"/>
    </contour>
  </outline>
</glyph>
<glyph name="cent" format="1">
  <advance width="600.0"/>
  <unicode hex="00A2"/>
  <outline>
    <contour>
      <point x="95" y="218" type="curve" smooth="yes"/>
      <point x="95" y="103"/>
      <point x="171" y="24"/>
      <point x="285" y="24" type="curve"/>
      <point x="358" y="24"/>
      <point x="423" y="50"/>
      <point x="491" y="100" type="curve"/>
      <point x="435" y="191" type="line"/>
      <point x="396" y="158"/>
      <point x="354" y="136"/>
      <point x="311" y="136" type="curve" smooth="yes"/>
      <point x="257" y="136"/>
      <point x="225" y="170"/>
      <point x="225" y="235" type="curve" smooth="yes"/>
      <point x="225" y="340"/>
      <point x="289" y="456"/>
      <point x="379" y="456" type="curve" smooth="yes"/>
      <point x="412" y="456"/>
      <point x="444" y="442"/>
      <point x="465" y="416" type="curve"/>
      <point x="545" y="499" type="line"/>
      <point x="514" y="539"/>
      <point x="456" y="568"/>
      <point x="395" y="568" type="curve" smooth="yes"/>
      <point x="220" y="568"/>
      <point x="95" y="401"/>
    </contour>
    <contour>
      <point x="194" y="-100" type="line"/>
      <point x="308" y="-100" type="line"/>
      <point x="346" y="80" type="line"/>
      <point x="232" y="80" type="line"/>
    </contour>
    <contour>
      <point x="322" y="503" type="line"/>
      <point x="436" y="503" type="line"/>
      <point x="477" y="695" type="line"/>
      <point x="363" y="695" type="line"/>
    </contour>
  </outline>
</glyph>
<glyph name="sterling" format="1">
  <advance width="600.0"/>
  <unicode hex="00A3"/>
  <outline>
    <contour>
      <point x="-5" y="0" type="line"/>
      <point x="474" y="0" type="line"/>
      <point x="497" y="111" type="line"/>
      <point x="19" y="111" type="line"/>
    </contour>
    <contour>
      <point x="0" y="25" type="line"/>
      <point x="159" y="68"/>
      <point x="282" y="167"/>
      <point x="282" y="315" type="curve"/>
      <point x="282" y="352"/>
      <point x="279" y="374"/>
      <point x="279" y="418" type="curve"/>
      <point x="279" y="514"/>
      <point x="329" y="580"/>
      <point x="417" y="580" type="curve"/>
      <point x="469" y="580"/>
      <point x="508" y="561"/>
      <point x="532" y="525" type="curve"/>
      <point x="620" y="611" type="line"/>
      <point x="589" y="666"/>
      <point x="513" y="701"/>
      <point x="419" y="701" type="curve"/>
      <point x="276" y="701"/>
      <point x="150" y="614"/>
      <point x="150" y="433" type="curve"/>
      <point x="150" y="376"/>
      <point x="153" y="349"/>
      <point x="153" y="318" type="curve" smooth="yes"/>
      <point x="153" y="224"/>
      <point x="110" y="150"/>
      <point x="19" y="112" type="curve"/>
    </contour>
    <contour>
      <point x="53" y="272" type="line"/>
      <point x="443" y="272" type="line"/>
      <point x="465" y="375" type="line"/>
      <point x="75" y="375" type="line"/>
    </contour>
  </outline>
</glyph>
<glyph name="brokenbar" format="1">
  <advance width="281"/>
  <unicode hex="00A6"/>
  <outline>
    <contour>
      <point x="-25" y="-215" type="line"/>
      <point x="94" y="-215" type="line"/>
      <point x="172" y="150" type="line"/>
      <point x="53" y="150" type="line"/>
    </contour>
    <contour>
      <point x="96" y="355" type="line"/>
      <point x="215" y="355" type="line"/>
      <point x="293" y="720" type="line"/>
      <point x="174" y="720" type="line"/>
    </contour>
  </outline>
</glyph>
<glyph name="section" format="1">
  <advance width="620.0"/>
  <unicode hex="00A7"/>
  <outline>
    <contour>
      <point x="-36" y="-115" type="line"/>
      <point x="13" y="-158"/>
      <point x="96" y="-196"/>
      <point x="210" y="-196" type="curve" smooth="yes"/>
      <point x="376" y="-196"/>
      <point x="469" y="-96"/>
      <point x="469" y="3" type="curve" smooth="yes"/>
      <point x="469" y="78"/>
      <point x="407" y="133"/>
      <point x="285" y="176" type="curve" smooth="yes"/>
      <point x="190" y="210"/>
      <point x="162" y="236"/>
      <point x="162" y="276" type="curve" smooth="yes"/>
      <point x="162" y="326"/>
      <point x="204" y="365"/>
      <point x="291" y="378" type="curve"/>
      <point x="212" y="444" type="line"/>
      <point x="105" y="417"/>
      <point x="35" y="335"/>
      <point x="35" y="255" type="curve" smooth="yes"/>
      <point x="35" y="175"/>
      <point x="94" y="126"/>
      <point x="224" y="73" type="curve" smooth="yes"/>
      <point x="306" y="41"/>
      <point x="331" y="26"/>
      <point x="331" y="-7" type="curve" smooth="yes"/>
      <point x="331" y="-48"/>
      <point x="287" y="-81"/>
      <point x="213" y="-81" type="curve" smooth="yes"/>
      <point x="143" y="-81"/>
      <point x="80" y="-54"/>
      <point x="38" y="-16" type="curve"/>
    </contour>
    <contour>
      <point x="136" y="503" type="curve" smooth="yes"/>
      <point x="136" y="421"/>
      <point x="199" y="364"/>
      <point x="318" y="321" type="curve" smooth="yes"/>
      <point x="415" y="287"/>
      <point x="442" y="263"/>
      <point x="442" y="229" type="curve" smooth="yes"/>
      <point x="442" y="177"/>
      <point x="400" y="141"/>
      <point x="314" y="128" type="curve"/>
      <point x="391" y="56" type="line"/>
      <point x="488" y="90"/>
      <point x="572" y="152"/>
      <point x="572" y="251" type="curve" smooth="yes"/>
      <point x="572" y="328"/>
      <point x="516" y="372"/>
      <point x="397" y="420" type="curve" smooth="yes"/>
      <point x="318" y="452"/>
      <point x="273" y="472"/>
      <point x="273" y="509" type="curve"/>
      <point x="273" y="550"/>
      <point x="325" y="586"/>
      <point x="408" y="586" type="curve" smooth="yes"/>
      <point x="466" y="586"/>
      <point x="530" y="568"/>
      <point x="573" y="529" type="curve"/>
      <point x="649" y="626" type="line"/>
      <point x="599" y="669"/>
      <point x="515" y="701"/>
      <point x="418" y="701" type="curve" smooth="yes"/>
      <point x="240" y="701"/>
      <point x="136" y="606"/>
    </contour>
  </outline>
</glyph>
<glyph name="dieresis" format="1">
  <advance width="600"/>
  <unicode hex="00A8"/>
  <outline>
    <contour>
      <point x="213" y="662" type="curve" smooth="yes"/>
      <point x="213" y="628"/>
      <point x="236" y="606"/>
      <point x="272" y="606" type="curve" smooth="yes"/>
      <point x="314" y="606"/>
      <point x="350" y="640"/>
      <point x="350" y="683" type="curve" smooth="yes"/>
      <point x="350" y="717"/>
      <point x="328" y="739"/>
      <point x="292" y="739" type="curve" smooth="yes"/>
      <point x="250" y="739"/>
      <point x="213" y="705"/>
    </contour>
    <contour>
      <point x="416" y="662" type="curve" smooth="yes"/>
      <point x="416" y="628"/>
      <point x="439" y="606"/>
      <point x="475" y="606" type="curve" smooth="yes"/>
      <point x="517" y="606"/>
      <point x="553" y="640"/>
      <point x="553" y="683" type="curve" smooth="yes"/>
      <point x="553" y="717"/>
      <point x="531" y="739"/>
      <point x="495" y="739" type="curve" smooth="yes"/>
      <point x="453" y="739"/>
      <point x="416" y="705"/>
    </contour>
    <contour>
      <point x="351" y="521" type="move" name="_top"/>
    </contour>
  </outline>
</glyph>
<glyph name="ordfeminine" format="1">
  <advance width="482"/>
  <unicode hex="00AA"/>
  <outline>
    <contour>
      <point x="86" y="434" type="curve"/>
      <point x="86" y="340"/>
      <point x="136" y="281"/>
      <point x="208" y="281" type="curve"/>
      <point x="265" y="281"/>
      <point x="317" y="315"/>
      <point x="347" y="369" type="curve"/>
      <point x="333" y="376" type="line"/>
      <point x="332" y="290" type="line"/>
      <point x="427" y="290" type="line"/>
      <point x="427" y="323" type="line" smooth="yes"/>
      <point x="427" y="347"/>
      <point x="429" y="363"/>
      <point x="433" y="386" type="curve" smooth="yes"/>
      <point x="499" y="690" type="line"/>
      <point x="408" y="690" type="line"/>
      <point x="391" y="650" type="line"/>
      <point x="359" y="504" type="line" smooth="yes"/>
      <point x="340" y="417"/>
      <point x="286" y="370"/>
      <point x="241" y="370" type="curve"/>
      <point x="208" y="370"/>
      <point x="188" y="394"/>
      <point x="188" y="444" type="curve"/>
      <point x="188" y="528"/>
      <point x="237" y="617"/>
      <point x="310" y="617" type="curve"/>
      <point x="343" y="617"/>
      <point x="370" y="601"/>
      <point x="395" y="570" type="curve"/>
      <point x="409" y="655" type="line"/>
      <point x="380" y="683"/>
      <point x="341" y="699"/>
      <point x="302" y="699" type="curve"/>
      <point x="185" y="699"/>
      <point x="86" y="576"/>
    </contour>
  </outline>
</glyph>
<glyph name="logicalnot" format="1">
  <advance width="600.0"/>
  <unicode hex="00AC"/>
  <outline>
    <contour>
      <point x="56" y="233" type="line"/>
      <point x="523" y="233" type="line"/>
      <point x="547" y="347" type="line"/>
      <point x="80" y="347" type="line"/>
    </contour>
    <contour>
      <point x="368" y="59" type="line"/>
      <point x="486" y="59" type="line"/>
      <point x="547" y="347" type="line"/>
      <point x="429" y="347" type="line"/>
    </contour>
  </outline>
</glyph>
<glyph name="plusminus" format="1">
  <advance width="600.0"/>
  <unicode hex="00B1"/>
  <outline>
    <contour>
      <point x="19" y="59" type="line"/>
      <point x="486" y="59" type="line"/>
      <point x="510" y="172" type="line"/>
      <point x="43" y="172" type="line"/>
    </contour>
    <contour>
      <point x="65" y="275" type="line"/>
      <point x="532" y="275" type="line"/>
      <point x="556" y="388" type="line"/>
      <point x="89" y="388" type="line"/>
    </contour>
    <contour>
      <point x="194" y="59" type="line"/>
      <point x="312" y="59" type="line"/>
      <point x="410" y="521" type="line"/>
      <point x="292" y="521" type="line"/>
    </contour>
  </outline>
</glyph>
<glyph name="twosuperior" format="1">
  <advance width="440.35407218209184"/>
  <unicode hex="00B2"/>
  <outline>
    <contour>
      <point x="71" y="290" type="line"/>
      <point x="366" y="290" type="line"/>
      <point x="384" y="370" type="line"/>
      <point x="142" y="370" type="line"/>
      <point x="84" y="351" type="line"/>
    </contour>
    <contour>
      <point x="84" y="351" type="line"/>
      <point x="129" y="290" type="line"/>
      <point x="293" y="424" type="line" smooth="yes"/>
      <point x="377" y="494"/>
      <point x="413" y="544"/>
      <point x="413" y="595" type="curve"/>
      <point x="413" y="656"/>
      <point x="369" y="701"/>
      <point x="293" y="701" type="curve"/>
      <point x="219" y="701"/>
      <point x="171" y="665"/>
      <point x="130" y="628" type="curve"/>
      <point x="174" y="573" type="line"/>
      <point x="202" y="598"/>
      <point x="236" y="617"/>
      <point x="271" y="617" type="curve"/>
      <point x="299" y="617"/>
      <point x="319" y="602"/>
      <point x="319" y="579" type="curve"/>
      <point x="319" y="554"/>
      <point x="295" y="525"/>
      <point x="237" y="478" type="curve" smooth="yes"/>
    </contour>
  </outline>
</glyph>
<glyph name="acute" format="1">
  <advance width="600"/>
  <unicode hex="00B4"/>
  <outline>
    <contour>
      <point x="295" y="596" type="line"/>
      <point x="404" y="596" type="line"/>
      <point x="555" y="746" type="line"/>
      <point x="411" y="746" type="line"/>
    </contour>
    <contour>
      <point x="351" y="521" type="move" name="_top"/>
    </contour>
  </outline>
</glyph>
<glyph name="paragraph" format="1">
  <advance width="753"/>
  <unicode hex="00B6"/>
  <outline>
    <contour>
      <point x="77" y="382" type="curve" smooth="yes"/>
      <point x="77" y="266"/>
      <point x="158" y="185"/>
      <point x="283" y="185" type="curve"/>
      <point x="318" y="185" type="line"/>
      <point x="235" y="-207" type="line"/>
      <point x="353" y="-207" type="line"/>
      <point x="544" y="690" type="line"/>
      <point x="391" y="690" type="line"/>
      <point x="214" y="690"/>
      <point x="77" y="556"/>
    </contour>
    <contour>
      <point x="449" y="-207" type="line"/>
      <point x="567" y="-207" type="line"/>
      <point x="758" y="690" type="line"/>
      <point x="640" y="690" type="line"/>
    </contour>
  </outline>
</glyph>
<glyph name="cedilla" format="1">
  <advance width="600"/>
  <unicode hex="00B8"/>
  <outline>
    <contour>
      <point x="127" y="-196" type="line"/>
      <point x="164" y="-196" type="line" smooth="yes"/>
      <point x="251" y="-196"/>
      <point x="316" y="-175"/>
      <point x="316" y="-110" type="curve" smooth="yes"/>
      <point x="316" y="-78"/>
      <point x="292" y="-55"/>
      <point x="253" y="-49" type="curve"/>
      <point x="275" y="9" type="line"/>
      <point x="214" y="15" type="line"/>
      <point x="171" y="-84" type="line"/>
      <point x="192" y="-86" type="line" smooth="yes"/>
      <point x="220" y="-89"/>
      <point x="230" y="-98"/>
      <point x="230" y="-109" type="curve"/>
      <point x="230" y="-127"/>
      <point x="214" y="-140"/>
      <point x="148" y="-140" type="curve"/>
    </contour>
    <contour>
      <point x="240" y="0" type="move" name="_bottom"/>
    </contour>
  </outline>
</glyph>
<glyph name="onesuperior" format="1">
  <advance width="440"/>
  <unicode hex="00B9"/>
  <outline>
    <contour>
      <point x="88" y="290" type="line"/>
      <point x="382" y="290" type="line"/>
      <point x="398" y="367" type="line"/>
      <point x="104" y="367" type="line"/>
    </contour>
    <contour>
      <point x="139" y="628" type="line"/>
      <point x="161" y="553" type="line"/>
      <point x="318" y="618" type="line"/>
      <point x="295" y="690" type="line"/>
    </contour>
    <contour>
      <point x="186" y="290" type="line"/>
      <point x="282" y="290" type="line"/>
      <point x="367" y="690" type="line"/>
      <point x="295" y="690" type="line"/>
      <point x="259" y="637" type="line"/>
    </contour>
  </outline>
</glyph>
<glyph name="ordmasculine" format="1">
  <advance width="477"/>
  <unicode hex="00BA"/>
  <outline>
    <contour>
      <point x="86" y="434" type="curve"/>
      <point x="86" y="337"/>
      <point x="152" y="277"/>
      <point x="242" y="277" type="curve"/>
      <point x="387" y="277"/>
      <point x="479" y="411"/>
      <point x="479" y="544" type="curve"/>
      <point x="479" y="642"/>
      <point x="412" y="701"/>
      <point x="324" y="701" type="curve"/>
      <point x="179" y="701"/>
      <point x="86" y="574"/>
    </contour>
    <contour>
      <point x="190" y="445" type="curve"/>
      <point x="190" y="524"/>
      <point x="237" y="618"/>
      <point x="311" y="618" type="curve"/>
      <point x="350" y="618"/>
      <point x="375" y="590"/>
      <point x="375" y="533" type="curve"/>
      <point x="375" y="453"/>
      <point x="329" y="361"/>
      <point x="256" y="361" type="curve"/>
      <point x="217" y="361"/>
      <point x="190" y="389"/>
    </contour>
  </outline>
</glyph>
<glyph name="AE" format="1">
  <advance width="951"/>
  <unicode hex="00C6"/>
  <outline>
    <contour>
      <point x="-54" y="0" type="line"/>
      <point x="89" y="0" type="line"/>
      <point x="452" y="604" type="line"/>
      <point x="448" y="690" type="line"/>
      <point x="369" y="690" type="line"/>
    </contour>
    <contour>
      <point x="141" y="159" type="line"/>
      <point x="459" y="159" type="line"/>
      <point x="482" y="267" type="line"/>
      <point x="165" y="267" type="line"/>
    </contour>
    <contour>
      <point x="367" y="0" type="line"/>
      <point x="501" y="0" type="line"/>
      <point x="648" y="690" type="line"/>
      <point x="514" y="690" type="line"/>
    </contour>
    <contour>
      <point x="398" y="572" type="line"/>
      <point x="954" y="572" type="line"/>
      <point x="979" y="690" type="line"/>
      <point x="424" y="690" type="line"/>
    </contour>
    <contour>
      <point x="429" y="0" type="line"/>
      <point x="837" y="0" type="line"/>
      <point x="863" y="118" type="line"/>
      <point x="454" y="118" type="line"/>
    </contour>
    <contour>
      <point x="491" y="292" type="line"/>
      <point x="848" y="292" type="line"/>
      <point x="871" y="404" type="line"/>
      <point x="515" y="404" type="line"/>
    </contour>
    <contour>
      <point x="659" y="690" type="move" name="top"/>
    </contour>
  </outline>
</glyph>
<glyph name="Ccedilla" format="1">
  <advance width="629"/>
  <unicode hex="00C7"/>
  <outline>
    <contour>
      <point x="52" y="245" type="curve"/>
      <point x="52" y="83"/>
      <point x="152" y="-11"/>
      <point x="306" y="-11" type="curve"/>
      <point x="392" y="-11"/>
      <point x="480" y="21"/>
      <point x="552" y="78" type="curve"/>
      <point x="482" y="184" type="line"/>
      <point x="438" y="144"/>
      <point x="377" y="115"/>
      <point x="324" y="115" type="curve"/>
      <point x="242" y="115"/>
      <point x="191" y="163"/>
      <point x="191" y="263" type="curve"/>
      <point x="191" y="438"/>
      <point x="302" y="576"/>
      <point x="431" y="576" type="curve" smooth="yes"/>
      <point x="484" y="576"/>
      <point x="524" y="557"/>
      <point x="559" y="519" type="curve"/>
      <point x="658" y="617" type="line"/>
      <point x="595" y="675"/>
      <point x="533" y="701"/>
      <point x="455" y="701" type="curve" smooth="yes"/>
      <point x="235" y="701"/>
      <point x="52" y="493"/>
    </contour>
    <contour>
      <point x="188" y="-196" type="line"/>
      <point x="225" y="-196" type="line" smooth="yes"/>
      <point x="312" y="-196"/>
      <point x="377" y="-175"/>
      <point x="377" y="-110" type="curve" smooth="yes"/>
      <point x="377" y="-78"/>
      <point x="353" y="-55"/>
      <point x="314" y="-49" type="curve"/>
      <point x="336" y="9" type="line"/>
      <point x="275" y="15" type="line"/>
      <point x="232" y="-84" type="line"/>
      <point x="253" y="-86" type="line" smooth="yes"/>
      <point x="281" y="-89"/>
      <point x="291" y="-98"/>
      <point x="291" y="-109" type="curve"/>
      <point x="291" y="-127"/>
      <point x="275" y="-140"/>
      <point x="209" y="-140" type="curve"/>
    </contour>
  </outline>
</glyph>
<glyph name="Oslash" format="1">
  <advance width="725"/>
  <unicode hex="00D8"/>
  <outline>
    <contour>
      <point x="52" y="245" type="curve"/>
      <point x="52" y="83"/>
      <point x="154" y="-11"/>
      <point x="300" y="-11" type="curve"/>
      <point x="515" y="-11"/>
      <point x="700" y="197"/>
      <point x="700" y="445" type="curve"/>
      <point x="700" y="607"/>
      <point x="597" y="701"/>
      <point x="452" y="701" type="curve"/>
      <point x="236" y="701"/>
      <point x="52" y="493"/>
    </contour>
    <contour>
      <point x="191" y="263" type="curve"/>
      <point x="191" y="440"/>
      <point x="304" y="580"/>
      <point x="427" y="580" type="curve"/>
      <point x="508" y="580"/>
      <point x="561" y="529"/>
      <point x="561" y="427" type="curve"/>
      <point x="561" y="250"/>
      <point x="447" y="110"/>
      <point x="325" y="110" type="curve"/>
      <point x="244" y="110"/>
      <point x="191" y="161"/>
    </contour>
    <contour>
      <point x="-16" y="62" type="line"/>
      <point x="46" y="-11" type="line"/>
      <point x="768" y="628" type="line"/>
      <point x="705" y="701" type="line"/>
    </contour>
    <contour>
      <point x="449" y="690" type="move" name="top"/>
    </contour>
  </outline>
</glyph>
<glyph name="germandbls" format="1">
  <advance width="593"/>
  <unicode hex="00DF"/>
  <outline>
    <contour>
      <point x="14" y="0" type="line"/>
      <point x="141" y="0" type="line"/>
      <point x="248" y="504" type="line" smooth="yes"/>
      <point x="265" y="588"/>
      <point x="308" y="620"/>
      <point x="355" y="620" type="curve" smooth="yes"/>
      <point x="396" y="620"/>
      <point x="423" y="601"/>
      <point x="423" y="557" type="curve"/>
      <point x="423" y="502"/>
      <point x="361" y="449"/>
      <point x="280" y="397" type="curve"/>
      <point x="260" y="303" type="line"/>
      <point x="354" y="246" type="line" smooth="yes"/>
      <point x="390" y="224"/>
      <point x="409" y="197"/>
      <point x="409" y="167" type="curve" smooth="yes"/>
      <point x="409" y="126"/>
      <point x="373" y="92"/>
      <point x="326" y="92" type="curve" smooth="yes"/>
      <point x="291" y="92"/>
      <point x="261" y="101"/>
      <point x="238" y="118" type="curve"/>
      <point x="184" y="32" type="line"/>
      <point x="209" y="13"/>
      <point x="260" y="-11"/>
      <point x="333" y="-11" type="curve"/>
      <point x="448" y="-11"/>
      <point x="534" y="61"/>
      <point x="534" y="171" type="curve" smooth="yes"/>
      <point x="534" y="239"/>
      <point x="494" y="288"/>
      <point x="439" y="320" type="curve" smooth="yes"/>
      <point x="380" y="353" type="line"/>
      <point x="466" y="413"/>
      <point x="543" y="477"/>
      <point x="543" y="575" type="curve"/>
      <point x="543" y="669"/>
      <point x="476" y="731"/>
      <point x="366" y="731" type="curve" smooth="yes"/>
      <point x="228" y="731"/>
      <point x="155" y="662"/>
      <point x="123" y="511" type="curve" smooth="yes"/>
    </contour>
  </outline>
</glyph>
<glyph name="ccedilla" format="1">
  <advance width="488"/>
  <unicode hex="00E7"/>
  <outline>
    <contour>
      <point x="28" y="182" type="curve" smooth="yes"/>
      <point x="28" y="67"/>
      <point x="104" y="-11"/>
      <point x="219" y="-11" type="curve"/>
      <point x="291" y="-11"/>
      <point x="356" y="14"/>
      <point x="424" y="65" type="curve"/>
      <point x="369" y="155" type="line"/>
      <point x="330" y="122"/>
      <point x="287" y="100"/>
      <point x="244" y="100" type="curve"/>
      <point x="190" y="100"/>
      <point x="158" y="134"/>
      <point x="158" y="199" type="curve" smooth="yes"/>
      <point x="158" y="305"/>
      <point x="222" y="421"/>
      <point x="312" y="421" type="curve" smooth="yes"/>
      <point x="345" y="421"/>
      <point x="377" y="407"/>
      <point x="398" y="380" type="curve"/>
      <point x="478" y="464" type="line"/>
      <point x="447" y="503"/>
      <point x="389" y="532"/>
      <point x="328" y="532" type="curve" smooth="yes"/>
      <point x="154" y="532"/>
      <point x="28" y="366"/>
    </contour>
    <contour>
      <point x="107" y="-196" type="line"/>
      <point x="144" y="-196" type="line" smooth="yes"/>
      <point x="231" y="-196"/>
      <point x="296" y="-175"/>
      <point x="296" y="-110" type="curve" smooth="yes"/>
      <point x="296" y="-78"/>
      <point x="272" y="-55"/>
      <point x="233" y="-49" type="curve"/>
      <point x="255" y="9" type="line"/>
      <point x="194" y="15" type="line"/>
      <point x="151" y="-84" type="line"/>
      <point x="172" y="-86" type="line" smooth="yes"/>
      <point x="200" y="-89"/>
      <point x="210" y="-98"/>
      <point x="210" y="-109" type="curve"/>
      <point x="210" y="-127"/>
      <point x="194" y="-140"/>
      <point x="128" y="-140" type="curve"/>
    </contour>
  </outline>
</glyph>
<glyph name="divide" format="1">
  <advance width="600.0"/>
  <unicode hex="00F7"/>
  <outline>
    <contour>
      <point x="56" y="233" type="line"/>
      <point x="523" y="233" type="line"/>
      <point x="547" y="347" type="line"/>
      <point x="80" y="347" type="line"/>
    </contour>
    <contour>
      <point x="172" y="82" type="curve"/>
      <point x="172" y="41"/>
      <point x="200" y="15"/>
      <point x="243" y="15" type="curve"/>
      <point x="293" y="15"/>
      <point x="338" y="55"/>
      <point x="338" y="108" type="curve"/>
      <point x="338" y="149"/>
      <point x="309" y="175"/>
      <point x="267" y="175" type="curve"/>
      <point x="217" y="175"/>
      <point x="172" y="134"/>
    </contour>
    <contour>
      <point x="255" y="471" type="curve"/>
      <point x="255" y="430"/>
      <point x="284" y="404"/>
      <point x="326" y="404" type="curve"/>
      <point x="376" y="404"/>
      <point x="421" y="445"/>
      <point x="421" y="497" type="curve"/>
      <point x="421" y="539"/>
      <point x="393" y="564"/>
      <point x="350" y="564" type="curve"/>
      <point x="300" y="564"/>
      <point x="255" y="524"/>
    </contour>
  </outline>
</glyph>
<glyph name="oslash" format="1">
  <advance width="561"/>
  <unicode hex="00F8"/>
  <outline>
    <contour>
      <point x="28" y="182" type="curve"/>
      <point x="28" y="65"/>
      <point x="107" y="-11"/>
      <point x="219" y="-11" type="curve"/>
      <point x="400" y="-11"/>
      <point x="523" y="162"/>
      <point x="523" y="338" type="curve"/>
      <point x="523" y="455"/>
      <point x="444" y="532"/>
      <point x="333" y="532" type="curve"/>
      <point x="151" y="532"/>
      <point x="28" y="366"/>
    </contour>
    <contour>
      <point x="158" y="197" type="curve"/>
      <point x="158" y="305"/>
      <point x="223" y="428"/>
      <point x="314" y="428" type="curve"/>
      <point x="365" y="428"/>
      <point x="394" y="392"/>
      <point x="394" y="322" type="curve"/>
      <point x="394" y="215"/>
      <point x="329" y="93"/>
      <point x="237" y="93" type="curve"/>
      <point x="186" y="93"/>
      <point x="158" y="128"/>
    </contour>
    <contour>
      <point x="-13" y="52" type="line"/>
      <point x="43" y="-11" type="line"/>
      <point x="565" y="469" type="line"/>
      <point x="508" y="532" type="line"/>
    </contour>
    <contour>
      <point x="329" y="521" type="move" name="top"/>
    </contour>
  </outline>
</glyph>
<glyph name="Dcroat" format="1">
  <advance width="705"/>
  <unicode hex="0110"/>
  <outline>
    <contour>
      <point x="29" y="287" type="line"/>
      <point x="365" y="287" type="line"/>
      <point x="388" y="397" type="line"/>
      <point x="52" y="397" type="line"/>
    </contour>
    <contour>
      <point x="28" y="0" type="line"/>
      <point x="163" y="0" type="line"/>
      <point x="310" y="690" type="line"/>
      <point x="175" y="690" type="line"/>
    </contour>
    <contour>
      <point x="91" y="0" type="line"/>
      <point x="249" y="0" type="line" smooth="yes"/>
      <point x="493" y="0"/>
      <point x="677" y="189"/>
      <point x="677" y="433" type="curve" smooth="yes"/>
      <point x="678" y="591"/>
      <point x="567" y="690"/>
      <point x="402" y="690" type="curve" smooth="yes"/>
      <point x="238" y="690" type="line"/>
      <point x="212" y="572" type="line"/>
      <point x="373" y="572" type="line" smooth="yes"/>
      <point x="475" y="572"/>
      <point x="537" y="514"/>
      <point x="538" y="415" type="curve" smooth="yes"/>
      <point x="537" y="252"/>
      <point x="411" y="118"/>
      <point x="263" y="118" type="curve" smooth="yes"/>
      <point x="116" y="118" type="line"/>
    </contour>
  </outline>
</glyph>
<glyph name="eogonek" format="1">
  <advance width="531"/>
  <unicode hex="0119"/>
  <outline>
    <contour>
      <point x="27" y="178" type="curve" smooth="yes"/>
      <point x="27" y="63"/>
      <point x="107" y="-11"/>
      <point x="230" y="-11" type="curve" smooth="yes"/>
      <point x="312" y="-11"/>
      <point x="374" y="16"/>
      <point x="445" y="69" type="curve"/>
      <point x="390" y="154" type="line"/>
      <point x="349" y="120"/>
      <point x="296" y="97"/>
      <point x="245" y="97" type="curve" smooth="yes"/>
      <point x="189" y="97"/>
      <point x="157" y="131"/>
      <point x="157" y="197" type="curve" smooth="yes"/>
      <point x="157" y="305"/>
      <point x="224" y="428"/>
      <point x="322" y="428" type="curve" smooth="yes"/>
      <point x="358" y="428"/>
      <point x="380" y="409"/>
      <point x="380" y="378" type="curve" smooth="yes"/>
      <point x="380" y="338"/>
      <point x="343" y="302"/>
      <point x="172" y="302" type="curve" smooth="yes"/>
      <point x="159" y="302"/>
      <point x="144" y="303"/>
      <point x="129" y="304" type="curve"/>
      <point x="116" y="223" type="line"/>
      <point x="140" y="221"/>
      <point x="160" y="220"/>
      <point x="181" y="220" type="curve" smooth="yes"/>
      <point x="364" y="220"/>
      <point x="506" y="260"/>
      <point x="506" y="391" type="curve" smooth="yes"/>
      <point x="506" y="471"/>
      <point x="438" y="532"/>
      <point x="339" y="532" type="curve" smooth="yes"/>
      <point x="152" y="532"/>
      <point x="27" y="365"/>
    </contour>
    <contour>
      <point x="197" y="-120" type="curve" smooth="yes"/>
      <point x="197" y="-162"/>
      <point x="227" y="-196"/>
      <point x="281" y="-196" type="curve" smooth="yes"/>
      <point x="317" y="-196"/>
      <point x="349" y="-186"/>
      <point x="373" y="-171" type="curve"/>
      <point x="354" y="-108" type="line"/>
      <point x="337" y="-118"/>
      <point x="320" y="-125"/>
      <point x="303" y="-125" type="curve" smooth="yes"/>
      <point x="285" y="-125"/>
      <point x="275" y="-115"/>
      <point x="275" y="-99" type="curve" smooth="yes"/>
      <point x="275" y="-60"/>
      <point x="343" y="-40"/>
      <point x="445" y="69" type="curve"/>
      <point x="291" y="0" type="line"/>
      <point x="240" y="-24"/>
      <point x="197" y="-76"/>
    </contour>
  </outline>
</glyph>
<glyph name="IJ" format="1">
  <advance width="770"/>
  <unicode hex="0132"/>
  <outline>
    <contour>
      <point x="22" y="0" type="line"/>
      <point x="156" y="0" type="line"/>
      <point x="303" y="690" type="line"/>
      <point x="168" y="690" type="line"/>
    </contour>
    <contour>
      <point x="251" y="26" type="line"/>
      <point x="288" y="2"/>
      <point x="344" y="-11"/>
      <point x="407" y="-11" type="curve" smooth="yes"/>
      <point x="534" y="-11"/>
      <point x="650" y="65"/>
      <point x="687" y="241" type="curve" smooth="yes"/>
      <point x="783" y="690" type="line"/>
      <point x="650" y="690" type="line"/>
      <point x="557" y="257" type="line" smooth="yes"/>
      <point x="535" y="152"/>
      <point x="479" y="110"/>
      <point x="409" y="110" type="curve" smooth="yes"/>
      <point x="375" y="110"/>
      <point x="345" y="121"/>
      <point x="326" y="136" type="curve"/>
    </contour>
  </outline>
</glyph>
<glyph name="Lslash" format="1">
  <advance width="559"/>
  <unicode hex="0141"/>
  <outline>
    <contour>
      <point x="10" y="186" type="line"/>
      <point x="373" y="372" type="line"/>
      <point x="401" y="498" type="line"/>
      <point x="38" y="312" type="line"/>
    </contour>
    <contour>
      <point x="26" y="0" type="line"/>
      <point x="161" y="0" type="line"/>
      <point x="308" y="690" type="line"/>
      <point x="173" y="690" type="line"/>
    </contour>
    <contour>
      <point x="89" y="0" type="line"/>
      <point x="473" y="0" type="line"/>
      <point x="499" y="118" type="line"/>
      <point x="114" y="118" type="line"/>
    </contour>
  </outline>
</glyph>
<glyph name="lslash" format="1">
  <advance width="303"/>
  <unicode hex="0142"/>
  <outline>
    <contour>
      <point x="28" y="0" type="line"/>
      <point x="155" y="0" type="line"/>
      <point x="310" y="734" type="line"/>
      <point x="180" y="715" type="line"/>
    </contour>
    <contour>
      <point x="5" y="186" type="line"/>
      <point x="296" y="332" type="line"/>
      <point x="323" y="453" type="line"/>
      <point x="32" y="306" type="line"/>
    </contour>
  </outline>
</glyph>
<glyph name="oe" format="1">
  <advance width="870"/>
  <unicode hex="0153"/>
  <outline>
    <contour>
      <point x="31" y="186" type="curve"/>
      <point x="31" y="65"/>
      <point x="98" y="-11"/>
      <point x="215" y="-11" type="curve"/>
      <point x="392" y="-11"/>
      <point x="498" y="165"/>
      <point x="498" y="338" type="curve"/>
      <point x="498" y="454"/>
      <point x="427" y="532"/>
      <point x="318" y="532" type="curve"/>
      <point x="142" y="532"/>
      <point x="31" y="377"/>
    </contour>
    <contour>
      <point x="158" y="197" type="curve"/>
      <point x="158" y="305"/>
      <point x="214" y="428"/>
      <point x="305" y="428" type="curve"/>
      <point x="348" y="428"/>
      <point x="375" y="392"/>
      <point x="375" y="322" type="curve"/>
      <point x="375" y="215"/>
      <point x="320" y="93"/>
      <point x="228" y="93" type="curve"/>
      <point x="185" y="93"/>
      <point x="158" y="128"/>
    </contour>
    <contour>
      <point x="384" y="178" type="curve" smooth="yes"/>
      <point x="384" y="63"/>
      <point x="458" y="-11"/>
      <point x="569" y="-11" type="curve" smooth="yes"/>
      <point x="651" y="-11"/>
      <point x="713" y="16"/>
      <point x="784" y="69" type="curve"/>
      <point x="729" y="154" type="line"/>
      <point x="688" y="120"/>
      <point x="635" y="97"/>
      <point x="584" y="97" type="curve" smooth="yes"/>
      <point x="531" y="97"/>
      <point x="499" y="132"/>
      <point x="499" y="197" type="curve" smooth="yes"/>
      <point x="499" y="305"/>
      <point x="565" y="428"/>
      <point x="661" y="428" type="curve" smooth="yes"/>
      <point x="697" y="428"/>
      <point x="720" y="409"/>
      <point x="720" y="378" type="curve" smooth="yes"/>
      <point x="720" y="337"/>
      <point x="682" y="301"/>
      <point x="501" y="301" type="curve" smooth="yes"/>
      <point x="492" y="301"/>
      <point x="483" y="302"/>
      <point x="470" y="304" type="curve"/>
      <point x="458" y="223" type="line"/>
      <point x="480" y="221"/>
      <point x="495" y="220"/>
      <point x="515" y="220" type="curve" smooth="yes"/>
      <point x="713" y="220"/>
      <point x="845" y="266"/>
      <point x="845" y="391" type="curve" smooth="yes"/>
      <point x="845" y="471"/>
      <point x="777" y="532"/>
      <point x="678" y="532" type="curve" smooth="yes"/>
      <point x="512" y="532"/>
      <point x="384" y="365"/>
    </contour>
  </outline>
</glyph>
<glyph name="Scedilla" format="1">
  <advance width="605"/>
  <unicode hex="015E"/>
  <outline>
    <contour>
      <point x="-3" y="87" type="line"/>
      <point x="69" y="30"/>
      <point x="166" y="-11"/>
      <point x="278" y="-11" type="curve"/>
      <point x="456" y="-11"/>
      <point x="545" y="86"/>
      <point x="545" y="197" type="curve"/>
      <point x="545" y="274"/>
      <point x="504" y="337"/>
      <point x="358" y="411" type="curve" smooth="yes"/>
      <point x="267" y="458"/>
      <point x="247" y="486"/>
      <point x="247" y="516" type="curve"/>
      <point x="247" y="552"/>
      <point x="281" y="584"/>
      <point x="350" y="584" type="curve"/>
      <point x="417" y="584"/>
      <point x="483" y="552"/>
      <point x="536" y="513" type="curve"/>
      <point x="598" y="626" type="line"/>
      <point x="538" y="670"/>
      <point x="454" y="701"/>
      <point x="371" y="701" type="curve"/>
      <point x="206" y="701"/>
      <point x="109" y="611"/>
      <point x="109" y="507" type="curve"/>
      <point x="109" y="433"/>
      <point x="145" y="371"/>
      <point x="284" y="299" type="curve" smooth="yes"/>
      <point x="383" y="248"/>
      <point x="399" y="221"/>
      <point x="399" y="185" type="curve"/>
      <point x="399" y="147"/>
      <point x="363" y="107"/>
      <point x="280" y="107" type="curve"/>
      <point x="201" y="107"/>
      <point x="125" y="146"/>
      <point x="72" y="195" type="curve"/>
    </contour>
    <contour>
      <point x="150" y="-196" type="line"/>
      <point x="187" y="-196" type="line" smooth="yes"/>
      <point x="274" y="-196"/>
      <point x="339" y="-175"/>
      <point x="339" y="-110" type="curve" smooth="yes"/>
      <point x="339" y="-78"/>
      <point x="315" y="-55"/>
      <point x="276" y="-49" type="curve"/>
      <point x="298" y="9" type="line"/>
      <point x="237" y="15" type="line"/>
      <point x="194" y="-84" type="line"/>
      <point x="215" y="-86" type="line" smooth="yes"/>
      <point x="243" y="-89"/>
      <point x="253" y="-98"/>
      <point x="253" y="-109" type="curve"/>
      <point x="253" y="-127"/>
      <point x="237" y="-140"/>
      <point x="171" y="-140" type="curve"/>
    </contour>
  </outline>
</glyph>
<glyph name="scedilla" format="1">
  <advance width="471"/>
  <unicode hex="015F"/>
  <outline>
    <contour>
      <point x="-17" y="55" type="line"/>
      <point x="38" y="15"/>
      <point x="117" y="-11"/>
      <point x="189" y="-11" type="curve"/>
      <point x="336" y="-11"/>
      <point x="407" y="63"/>
      <point x="407" y="141" type="curve"/>
      <point x="407" y="212"/>
      <point x="371" y="258"/>
      <point x="262" y="318" type="curve" smooth="yes"/>
      <point x="210" y="346"/>
      <point x="196" y="362"/>
      <point x="196" y="382" type="curve"/>
      <point x="196" y="408"/>
      <point x="217" y="428"/>
      <point x="260" y="428" type="curve"/>
      <point x="306" y="428"/>
      <point x="358" y="404"/>
      <point x="393" y="377" type="curve"/>
      <point x="450" y="477" type="line"/>
      <point x="404" y="508"/>
      <point x="337" y="532"/>
      <point x="272" y="532" type="curve"/>
      <point x="143" y="532"/>
      <point x="66" y="460"/>
      <point x="66" y="374" type="curve"/>
      <point x="66" y="313"/>
      <point x="97" y="268"/>
      <point x="196" y="213" type="curve" smooth="yes"/>
      <point x="256" y="181"/>
      <point x="271" y="162"/>
      <point x="271" y="140" type="curve"/>
      <point x="271" y="119"/>
      <point x="251" y="97"/>
      <point x="202" y="97" type="curve"/>
      <point x="148" y="97"/>
      <point x="93" y="118"/>
      <point x="47" y="157" type="curve"/>
    </contour>
    <contour>
      <point x="66" y="-196" type="line"/>
      <point x="103" y="-196" type="line" smooth="yes"/>
      <point x="190" y="-196"/>
      <point x="255" y="-175"/>
      <point x="255" y="-110" type="curve" smooth="yes"/>
      <point x="255" y="-78"/>
      <point x="231" y="-55"/>
      <point x="192" y="-49" type="curve"/>
      <point x="214" y="9" type="line"/>
      <point x="153" y="15" type="line"/>
      <point x="110" y="-84" type="line"/>
      <point x="131" y="-86" type="line" smooth="yes"/>
      <point x="159" y="-89"/>
      <point x="169" y="-98"/>
      <point x="169" y="-109" type="curve"/>
      <point x="169" y="-127"/>
      <point x="153" y="-140"/>
      <point x="87" y="-140" type="curve"/>
    </contour>
  </outline>
</glyph>
<glyph name="Tcedilla" format="1">
  <advance width="574"/>
  <unicode hex="0162"/>
  <outline>
    <contour>
      <point x="86" y="572" type="line"/>
      <point x="612" y="572" type="line"/>
      <point x="637" y="690" type="line"/>
      <point x="112" y="690" type="line"/>
    </contour>
    <contour>
      <point x="160" y="0" type="line"/>
      <point x="295" y="0" type="line"/>
      <point x="442" y="690" type="line"/>
      <point x="307" y="690" type="line"/>
    </contour>
    <contour>
      <point x="117" y="-196" type="line"/>
      <point x="154" y="-196" type="line" smooth="yes"/>
      <point x="241" y="-196"/>
      <point x="306" y="-175"/>
      <point x="306" y="-110" type="curve" smooth="yes"/>
      <point x="306" y="-78"/>
      <point x="282" y="-55"/>
      <point x="243" y="-49" type="curve"/>
      <point x="265" y="9" type="line"/>
      <point x="204" y="15" type="line"/>
      <point x="161" y="-84" type="line"/>
      <point x="182" y="-86" type="line" smooth="yes"/>
      <point x="210" y="-89"/>
      <point x="220" y="-98"/>
      <point x="220" y="-109" type="curve"/>
      <point x="220" y="-127"/>
      <point x="204" y="-140"/>
      <point x="138" y="-140" type="curve"/>
    </contour>
  </outline>
</glyph>
<glyph name="tcedilla" format="1">
  <advance width="411"/>
  <unicode hex="0163"/>
  <outline>
    <contour>
      <point x="45" y="423" type="line"/>
      <point x="402" y="423" type="line"/>
      <point x="423" y="521" type="line"/>
      <point x="66" y="521" type="line"/>
    </contour>
    <contour>
      <point x="79" y="129" type="curve"/>
      <point x="79" y="40"/>
      <point x="137" y="-11"/>
      <point x="229" y="-11" type="curve"/>
      <point x="261" y="-11"/>
      <point x="301" y="-2"/>
      <point x="331" y="10" type="curve"/>
      <point x="323" y="119" type="line"/>
      <point x="299" y="109"/>
      <point x="274" y="103"/>
      <point x="255" y="103" type="curve"/>
      <point x="225" y="103"/>
      <point x="208" y="119"/>
      <point x="208" y="151" type="curve"/>
      <point x="208" y="160"/>
      <point x="209" y="169"/>
      <point x="211" y="180" type="curve" smooth="yes"/>
      <point x="312" y="659" type="line"/>
      <point x="182" y="641" type="line"/>
      <point x="85" y="183" type="line" smooth="yes"/>
      <point x="81" y="165"/>
      <point x="79" y="146"/>
    </contour>
    <contour>
      <point x="80" y="-196" type="line"/>
      <point x="117" y="-196" type="line" smooth="yes"/>
      <point x="204" y="-196"/>
      <point x="269" y="-175"/>
      <point x="269" y="-110" type="curve" smooth="yes"/>
      <point x="269" y="-78"/>
      <point x="245" y="-55"/>
      <point x="206" y="-49" type="curve"/>
      <point x="228" y="9" type="line"/>
      <point x="167" y="15" type="line"/>
      <point x="124" y="-84" type="line"/>
      <point x="145" y="-86" type="line" smooth="yes"/>
      <point x="173" y="-89"/>
      <point x="183" y="-98"/>
      <point x="183" y="-109" type="curve"/>
      <point x="183" y="-127"/>
      <point x="167" y="-140"/>
      <point x="101" y="-140" type="curve"/>
    </contour>
  </outline>
</glyph>
<glyph name="Schwa" format="1">
  <advance width="724"/>
  <unicode hex="018F"/>
  <outline>
    <contour>
      <point x="52" y="255" type="curve" smooth="yes"/>
      <point x="52" y="102"/>
      <point x="145" y="-12"/>
      <point x="317" y="-12" type="curve"/>
      <point x="561" y="-12"/>
      <point x="692" y="193"/>
      <point x="692" y="415" type="curve" smooth="yes"/>
      <point x="692" y="600"/>
      <point x="581" y="702"/>
      <point x="414" y="702" type="curve" smooth="yes"/>
      <point x="323" y="702"/>
      <point x="237" y="671"/>
      <point x="169" y="635" type="curve"/>
      <point x="194" y="520" type="line"/>
      <point x="245" y="551"/>
      <point x="322" y="575"/>
      <point x="393" y="575" type="curve" smooth="yes"/>
      <point x="495" y="575"/>
      <point x="556" y="522"/>
      <point x="556" y="415" type="curve" smooth="yes"/>
      <point x="556" y="244"/>
      <point x="483" y="109"/>
      <point x="328" y="109" type="curve"/>
      <point x="243" y="109"/>
      <point x="188" y="162"/>
      <point x="188" y="255" type="curve" smooth="yes"/>
      <point x="188" y="289"/>
      <point x="195" y="316"/>
      <point x="201" y="342" type="curve"/>
      <point x="158" y="285" type="line"/>
      <point x="574" y="285" type="line"/>
      <point x="596" y="390" type="line"/>
      <point x="77" y="390" type="line"/>
      <point x="65" y="362"/>
      <point x="52" y="321"/>
    </contour>
  </outline>
</glyph>
<glyph name="florin" format="1">
  <advance width="600.0"/>
  <unicode hex="0192"/>
  <outline>
    <contour>
      <point x="-12" y="-174" type="line"/>
      <point x="11" y="-184"/>
      <point x="46" y="-196"/>
      <point x="88" y="-196" type="curve"/>
      <point x="162" y="-196"/>
      <point x="253" y="-164"/>
      <point x="288" y="-1" type="curve" smooth="yes"/>
      <point x="403" y="537" type="line" smooth="yes"/>
      <point x="416" y="597"/>
      <point x="446" y="624"/>
      <point x="490" y="624" type="curve"/>
      <point x="512" y="624"/>
      <point x="536" y="620"/>
      <point x="557" y="610" type="curve"/>
      <point x="596" y="709" type="line"/>
      <point x="568" y="722"/>
      <point x="529" y="731"/>
      <point x="489" y="731" type="curve"/>
      <point x="376" y="731"/>
      <point x="304" y="671"/>
      <point x="278" y="548" type="curve" smooth="yes"/>
      <point x="167" y="22" type="line" smooth="yes"/>
      <point x="148" y="-69"/>
      <point x="116" y="-84"/>
      <point x="73" y="-84" type="curve"/>
      <point x="56" y="-84"/>
      <point x="42" y="-81"/>
      <point x="23" y="-75" type="curve"/>
    </contour>
    <contour>
      <point x="161" y="423" type="line"/>
      <point x="517" y="423" type="line"/>
      <point x="539" y="521" type="line"/>
      <point x="182" y="521" type="line"/>
    </contour>
  </outline>
</glyph>
<glyph name="Nhookleft" format="1">
  <advance width="724"/>
  <unicode hex="019D"/>
  <outline>
    <contour>
      <point x="-152" y="-177" type="line"/>
      <point x="-128" y="-188"/>
      <point x="-97" y="-196"/>
      <point x="-60" y="-196" type="curve"/>
      <point x="44" y="-196"/>
      <point x="115" y="-140"/>
      <point x="141" y="-13" type="curve" smooth="yes"/>
      <point x="291" y="690" type="line"/>
      <point x="168" y="690" type="line"/>
      <point x="19" y="-12" type="line" smooth="yes"/>
      <point x="7" y="-72"/>
      <point x="-28" y="-92"/>
      <point x="-68" y="-92" type="curve"/>
      <point x="-87" y="-92"/>
      <point x="-105" y="-87"/>
      <point x="-120" y="-79" type="curve"/>
    </contour>
    <contour>
      <point x="214" y="690" type="line"/>
      <point x="423" y="0" type="line"/>
      <point x="544" y="0" type="line"/>
      <point x="336" y="690" type="line"/>
    </contour>
    <contour>
      <point x="460" y="0" type="line"/>
      <point x="582" y="0" type="line"/>
      <point x="729" y="690" type="line"/>
      <point x="607" y="690" type="line"/>
    </contour>
  </outline>
</glyph>
<glyph name="dotlessj" format="1">
  <advance width="274"/>
  <unicode hex="0237"/>
  <outline>
    <contour>
      <point x="-158" y="-177" type="line"/>
      <point x="-135" y="-188"/>
      <point x="-104" y="-196"/>
      <point x="-67" y="-196" type="curve"/>
      <point x="39" y="-196"/>
      <point x="112" y="-137"/>
      <point x="138" y="-14" type="curve" smooth="yes"/>
      <point x="251" y="521" type="line"/>
      <point x="125" y="521" type="line"/>
      <point x="11" y="-11" type="line" smooth="yes"/>
      <point x="-1" y="-71"/>
      <point x="-33" y="-92"/>
      <point x="-75" y="-92" type="curve"/>
      <point x="-93" y="-92"/>
      <point x="-111" y="-87"/>
      <point x="-127" y="-79" type="curve"/>
    </contour>
    <contour>
      <point x="187" y="521" type="move" name="top"/>
    </contour>
  </outline>
</glyph>
<glyph name="ring" format="1">
  <advance width="600"/>
  <unicode hex="02DA"/>
  <outline>
    <contour>
      <point x="270" y="685" type="curve" smooth="yes"/>
      <point x="270" y="628"/>
      <point x="310" y="587"/>
      <point x="373" y="587" type="curve"/>
      <point x="450" y="587"/>
      <point x="509" y="646"/>
      <point x="509" y="721" type="curve" smooth="yes"/>
      <point x="509" y="778"/>
      <point x="469" y="819"/>
      <point x="406" y="819" type="curve"/>
      <point x="329" y="819"/>
      <point x="270" y="760"/>
    </contour>
    <contour>
      <point x="341" y="691" type="curve" smooth="yes"/>
      <point x="341" y="727"/>
      <point x="366" y="756"/>
      <point x="400" y="756" type="curve"/>
      <point x="423" y="756"/>
      <point x="437" y="738"/>
      <point x="437" y="715" type="curve" smooth="yes"/>
      <point x="437" y="679"/>
      <point x="413" y="650"/>
      <point x="379" y="650" type="curve"/>
      <point x="356" y="650"/>
      <point x="341" y="668"/>
    </contour>
    <contour>
      <point x="351" y="521" type="move" name="_top"/>
    </contour>
  </outline>
</glyph>
<glyph name="tilde" format="1">
  <advance width="600"/>
  <unicode hex="02DC"/>
  <outline>
    <contour>
      <point x="218" y="606" type="curve"/>
      <point x="281" y="606" type="line"/>
      <point x="291" y="640"/>
      <point x="306" y="649"/>
      <point x="320" y="649" type="curve" smooth="yes"/>
      <point x="351" y="649"/>
      <point x="375" y="601"/>
      <point x="434" y="601" type="curve" smooth="yes"/>
      <point x="496" y="601"/>
      <point x="531" y="649"/>
      <point x="546" y="734" type="curve"/>
      <point x="482" y="734" type="line"/>
      <point x="472" y="700"/>
      <point x="458" y="691"/>
      <point x="443" y="691" type="curve" smooth="yes"/>
      <point x="412" y="691"/>
      <point x="388" y="739"/>
      <point x="330" y="739" type="curve" smooth="yes"/>
      <point x="267" y="739"/>
      <point x="233" y="690"/>
    </contour>
    <contour>
      <point x="351" y="521" type="move" name="_top"/>
    </contour>
  </outline>
</glyph>
<glyph name="Delta" format="1">
  <advance width="636"/>
  <unicode hex="0394"/>
  <outline>
    <contour>
      <point x="-56" y="0" type="line"/>
      <point x="94" y="0" type="line"/>
      <point x="400" y="563" type="line"/>
      <point x="415" y="690" type="line"/>
      <point x="348" y="690" type="line"/>
    </contour>
    <contour>
      <point x="38" y="0" type="line"/>
      <point x="479" y="0" type="line"/>
      <point x="504" y="118" type="line"/>
      <point x="63" y="118" type="line"/>
    </contour>
    <contour>
      <point x="367" y="563" type="line"/>
      <point x="432" y="0" type="line"/>
      <point x="572" y="0" type="line"/>
      <point x="462" y="690" type="line"/>
      <point x="390" y="690" type="line"/>
    </contour>
  </outline>
</glyph>
<glyph name="Omega" format="1">
  <advance width="712"/>
  <unicode hex="03A9"/>
  <outline>
    <contour>
      <point x="8" y="0" type="line"/>
      <point x="231" y="0" type="line"/>
      <point x="260" y="137" type="line"/>
      <point x="229" y="175"/>
      <point x="206" y="235"/>
      <point x="206" y="306" type="curve"/>
      <point x="206" y="460"/>
      <point x="296" y="574"/>
      <point x="417" y="574" type="curve"/>
      <point x="495" y="574"/>
      <point x="547" y="523"/>
      <point x="547" y="429" type="curve"/>
      <point x="547" y="320"/>
      <point x="471" y="195"/>
      <point x="395" y="133" type="curve"/>
      <point x="366" y="0" type="line"/>
      <point x="589" y="0" type="line"/>
      <point x="613" y="111" type="line"/>
      <point x="435" y="111" type="line"/>
      <point x="376" y="46" type="line"/>
      <point x="538" y="111"/>
      <point x="679" y="272"/>
      <point x="679" y="461" type="curve"/>
      <point x="679" y="612"/>
      <point x="577" y="701"/>
      <point x="434" y="701" type="curve"/>
      <point x="234" y="701"/>
      <point x="83" y="546"/>
      <point x="83" y="336" type="curve"/>
      <point x="83" y="198"/>
      <point x="158" y="97"/>
      <point x="241" y="47" type="curve"/>
      <point x="210" y="111" type="line"/>
      <point x="33" y="111" type="line"/>
    </contour>
  </outline>
</glyph>
<glyph name="mu" format="1">
  <advance width="611"/>
  <unicode hex="03BC"/>
  <outline>
    <contour>
      <point x="-27" y="-185" type="line"/>
      <point x="90" y="-185" type="line"/>
      <point x="147" y="174" type="line"/>
      <point x="107" y="118" type="line"/>
      <point x="116" y="21"/>
      <point x="163" y="-11"/>
      <point x="224" y="-11" type="curve"/>
      <point x="290" y="-11"/>
      <point x="354" y="26"/>
      <point x="394" y="101" type="curve"/>
      <point x="381" y="105" type="line"/>
      <point x="373" y="23"/>
      <point x="413" y="-11"/>
      <point x="471" y="-11" type="curve"/>
      <point x="491" y="-11"/>
      <point x="509" y="-6"/>
      <point x="525" y="0" type="curve"/>
      <point x="547" y="101" type="line"/>
      <point x="541" y="99"/>
      <point x="534" y="98"/>
      <point x="527" y="98" type="curve"/>
      <point x="507" y="98"/>
      <point x="500" y="113"/>
      <point x="508" y="153" type="curve" smooth="yes"/>
      <point x="586" y="521" type="line"/>
      <point x="460" y="521" type="line"/>
      <point x="408" y="278" type="line" smooth="yes"/>
      <point x="384" y="166"/>
      <point x="306" y="101"/>
      <point x="247" y="101" type="curve"/>
      <point x="192" y="101"/>
      <point x="169" y="140"/>
      <point x="183" y="209" type="curve" smooth="yes"/>
      <point x="250" y="521" type="line"/>
      <point x="123" y="521" type="line"/>
    </contour>
  </outline>
</glyph>
<glyph name="emdash" format="1">
  <advance width="905"/>
  <unicode hex="2014"/>
  <outline>
    <contour>
      <point x="39" y="228" type="line"/>
      <point x="842" y="228" type="line"/>
      <point x="864" y="330" type="line"/>
      <point x="61" y="330" type="line"/>
    </contour>
  </outline>
</glyph>
<glyph name="bullet" format="1">
  <advance width="393"/>
  <unicode hex="2022"/>
  <outline>
    <contour>
      <point x="76" y="274" type="curve" smooth="yes"/>
      <point x="76" y="212"/>
      <point x="117" y="170"/>
      <point x="182" y="170" type="curve" smooth="yes"/>
      <point x="257" y="170"/>
      <point x="320" y="227"/>
      <point x="320" y="306" type="curve" smooth="yes"/>
      <point x="320" y="368"/>
      <point x="279" y="410"/>
      <point x="214" y="410" type="curve" smooth="yes"/>
      <point x="139" y="410"/>
      <point x="76" y="353"/>
    </contour>
  </outline>
</glyph>
<glyph name="perthousand" format="1">
  <advance width="1342"/>
  <unicode hex="2030"/>
  <outline>
    <contour>
      <point x="115" y="490" type="curve"/>
      <point x="115" y="401"/>
      <point x="176" y="344"/>
      <point x="258" y="344" type="curve"/>
      <point x="390" y="344"/>
      <point x="458" y="453"/>
      <point x="458" y="555" type="curve"/>
      <point x="458" y="644"/>
      <point x="398" y="701"/>
      <point x="314" y="701" type="curve"/>
      <point x="192" y="701"/>
      <point x="115" y="597"/>
    </contour>
    <contour>
      <point x="210" y="497" type="curve"/>
      <point x="210" y="560"/>
      <point x="247" y="616"/>
      <point x="305" y="616" type="curve"/>
      <point x="343" y="616"/>
      <point x="367" y="591"/>
      <point x="367" y="548" type="curve"/>
      <point x="367" y="485"/>
      <point x="329" y="430"/>
      <point x="271" y="430" type="curve"/>
      <point x="234" y="430"/>
      <point x="210" y="455"/>
    </contour>
    <contour>
      <point x="131" y="0" type="line"/>
      <point x="252" y="0" type="line"/>
      <point x="841" y="690" type="line"/>
      <point x="720" y="690" type="line"/>
    </contour>
    <contour>
      <point x="516" y="135" type="curve"/>
      <point x="516" y="46"/>
      <point x="577" y="-11"/>
      <point x="659" y="-11" type="curve"/>
      <point x="792" y="-11"/>
      <point x="859" y="98"/>
      <point x="859" y="200" type="curve"/>
      <point x="859" y="289"/>
      <point x="799" y="346"/>
      <point x="715" y="346" type="curve"/>
      <point x="592" y="346"/>
      <point x="516" y="241"/>
    </contour>
    <contour>
      <point x="611" y="142" type="curve"/>
      <point x="611" y="204"/>
      <point x="648" y="260"/>
      <point x="706" y="260" type="curve"/>
      <point x="743" y="260"/>
      <point x="768" y="235"/>
      <point x="768" y="192" type="curve"/>
      <point x="768" y="129"/>
      <point x="730" y="75"/>
      <point x="672" y="75" type="curve"/>
      <point x="635" y="75"/>
      <point x="611" y="99"/>
    </contour>
    <contour>
      <point x="911" y="135" type="curve"/>
      <point x="911" y="46"/>
      <point x="972" y="-11"/>
      <point x="1054" y="-11" type="curve"/>
      <point x="1186" y="-11"/>
      <point x="1253" y="98"/>
      <point x="1253" y="200" type="curve"/>
      <point x="1253" y="289"/>
      <point x="1193" y="346"/>
      <point x="1110" y="346" type="curve"/>
      <point x="987" y="346"/>
      <point x="911" y="241"/>
    </contour>
    <contour>
      <point x="1005" y="142" type="curve"/>
      <point x="1005" y="204"/>
      <point x="1043" y="260"/>
      <point x="1101" y="260" type="curve"/>
      <point x="1138" y="260"/>
      <point x="1162" y="235"/>
      <point x="1162" y="192" type="curve"/>
      <point x="1162" y="129"/>
      <point x="1125" y="75"/>
      <point x="1067" y="75" type="curve"/>
      <point x="1030" y="75"/>
      <point x="1005" y="99"/>
    </contour>
  </outline>
</glyph>
<glyph name="guilsinglright" format="1">
  <advance width="302"/>
  <unicode hex="203A"/>
  <outline>
    <contour>
      <point x="-19" y="84" type="line"/>
      <point x="116" y="84" type="line"/>
      <point x="254" y="239" type="line"/>
      <point x="268" y="301" type="line"/>
      <point x="157" y="286" type="line"/>
    </contour>
    <contour>
      <point x="60" y="460" type="line"/>
      <point x="165" y="247" type="line"/>
      <point x="254" y="239" type="line"/>
      <point x="268" y="301" type="line"/>
      <point x="185" y="460" type="line"/>
    </contour>
  </outline>
</glyph>
<glyph name="Euro" format="1">
  <advance width="600.0"/>
  <unicode hex="20AC"/>
  <outline>
    <contour>
      <point x="11" y="212" type="line"/>
      <point x="403" y="212" type="line"/>
      <point x="424" y="307" type="line"/>
      <point x="31" y="307" type="line"/>
    </contour>
    <contour>
      <point x="47" y="383" type="line"/>
      <point x="439" y="383" type="line"/>
      <point x="460" y="478" type="line"/>
      <point x="68" y="478" type="line"/>
    </contour>
    <contour>
      <point x="78" y="247" type="curve"/>
      <point x="78" y="78"/>
      <point x="181" y="-11"/>
      <point x="328" y="-11" type="curve"/>
      <point x="405" y="-11"/>
      <point x="480" y="17"/>
      <point x="550" y="74" type="curve"/>
      <point x="495" y="175" type="line"/>
      <point x="449" y="136"/>
      <point x="402" y="114"/>
      <point x="344" y="114" type="curve"/>
      <point x="266" y="114"/>
      <point x="218" y="164"/>
      <point x="218" y="260" type="curve"/>
      <point x="218" y="443"/>
      <point x="325" y="575"/>
      <point x="447" y="575" type="curve" smooth="yes"/>
      <point x="500" y="575"/>
      <point x="540" y="558"/>
      <point x="572" y="524" type="curve"/>
      <point x="658" y="624" type="line"/>
      <point x="610" y="676"/>
      <point x="549" y="701"/>
      <point x="465" y="701" type="curve" smooth="yes"/>
      <point x="264" y="701"/>
      <point x="78" y="513"/>
    </contour>
  </outline>
</glyph>
<glyph name="trademark" format="1">
  <advance width="916"/>
  <unicode hex="2122"/>
  <outline>
    <contour>
      <point x="97" y="604" type="line"/>
      <point x="418" y="604" type="line"/>
      <point x="436" y="690" type="line"/>
      <point x="116" y="690" type="line"/>
    </contour>
    <contour>
      <point x="144" y="290" type="line"/>
      <point x="239" y="290" type="line"/>
      <point x="324" y="690" type="line"/>
      <point x="229" y="690" type="line"/>
    </contour>
    <contour>
      <point x="423" y="290" type="line"/>
      <point x="511" y="290" type="line"/>
      <point x="596" y="690" type="line"/>
      <point x="508" y="690" type="line"/>
    </contour>
    <contour>
      <point x="567" y="690" type="line"/>
      <point x="606" y="369" type="line"/>
      <point x="668" y="369" type="line"/>
      <point x="684" y="426" type="line"/>
      <point x="649" y="690" type="line"/>
    </contour>
    <contour>
      <point x="627" y="369" type="line"/>
      <point x="689" y="369" type="line"/>
      <point x="865" y="690" type="line"/>
      <point x="775" y="689" type="line"/>
      <point x="635" y="425" type="line"/>
    </contour>
    <contour>
      <point x="752" y="290" type="line"/>
      <point x="839" y="290" type="line"/>
      <point x="924" y="690" type="line"/>
      <point x="837" y="690" type="line"/>
    </contour>
  </outline>
</glyph>
<glyph name="estimated" format="1">
  <advance width="686"/>
  <unicode hex="212E"/>
  <outline>
    <contour>
      <point x="51" y="238" type="curve" smooth="yes"/>
      <point x="51" y="75"/>
      <point x="149" y="-10"/>
      <point x="300" y="-10" type="curve" smooth="yes"/>
      <point x="393" y="-10"/>
      <point x="476" y="20"/>
      <point x="548" y="64" type="curve"/>
      <point x="528" y="116" type="line"/>
      <point x="469" y="80"/>
      <point x="395" y="50"/>
      <point x="317" y="50" type="curve" smooth="yes"/>
      <point x="187" y="50"/>
      <point x="113" y="117"/>
      <point x="113" y="249" type="curve" smooth="yes"/>
      <point x="113" y="437"/>
      <point x="261" y="640"/>
      <point x="428" y="640" type="curve" smooth="yes"/>
      <point x="549" y="640"/>
      <point x="601" y="573"/>
      <point x="601" y="445" type="curve" smooth="yes"/>
      <point x="601" y="418"/>
      <point x="598" y="388"/>
      <point x="591" y="356" type="curve"/>
      <point x="613" y="390" type="line"/>
      <point x="103" y="390" type="line"/>
      <point x="90" y="330" type="line"/>
      <point x="644" y="330" type="line"/>
      <point x="657" y="372"/>
      <point x="664" y="420"/>
      <point x="664" y="458" type="curve" smooth="yes"/>
      <point x="664" y="613"/>
      <point x="567" y="700"/>
      <point x="441" y="700" type="curve" smooth="yes"/>
      <point x="212" y="700"/>
      <point x="51" y="458"/>
    </contour>
    <contour>
      <point x="67" y="221" type="line"/>
      <point x="152" y="81" type="line"/>
      <point x="263" y="601" type="line"/>
      <point x="122" y="481" type="line"/>
    </contour>
    <contour>
      <point x="505" y="351" type="line"/>
      <point x="619" y="351" type="line"/>
      <point x="647" y="481" type="line"/>
      <point x="561" y="610" type="line"/>
    </contour>
  </outline>
</glyph>
<glyph name="divisionslash" format="1">
  <advance width="569"/>
  <unicode hex="2215"/>
  <outline>
    <contour>
      <point x="-60" y="0" type="line"/>
      <point x="89" y="0" type="line"/>
      <point x="656" y="690" type="line"/>
      <point x="507" y="690" type="line"/>
    </contour>
  </outline>
</glyph>
<glyph name="infinity" format="1">
  <advance width="661"/>
  <unicode hex="221E"/>
  <outline>
    <contour>
      <point x="32" y="246" type="curve" smooth="yes"/>
      <point x="32" y="153"/>
      <point x="86" y="94"/>
      <point x="162" y="94" type="curve" smooth="yes"/>
      <point x="228" y="94"/>
      <point x="299" y="139"/>
      <point x="371" y="274" type="curve" smooth="yes"/>
      <point x="412" y="351"/>
      <point x="452" y="382"/>
      <point x="486" y="382" type="curve" smooth="yes"/>
      <point x="511" y="382"/>
      <point x="531" y="360"/>
      <point x="531" y="320" type="curve" smooth="yes"/>
      <point x="531" y="251"/>
      <point x="491" y="198"/>
      <point x="447" y="198" type="curve" smooth="yes"/>
      <point x="403" y="198"/>
      <point x="378" y="257"/>
      <point x="377" y="297" type="curve" smooth="yes"/>
      <point x="377" y="299"/>
      <point x="377" y="300"/>
      <point x="377" y="302" type="curve"/>
      <point x="320" y="240" type="line"/>
      <point x="316" y="183"/>
      <point x="354" y="94"/>
      <point x="445" y="94" type="curve" smooth="yes"/>
      <point x="549" y="94"/>
      <point x="632" y="210"/>
      <point x="632" y="333" type="curve" smooth="yes"/>
      <point x="632" y="425"/>
      <point x="579" y="486"/>
      <point x="502" y="486" type="curve"/>
      <point x="437" y="486"/>
      <point x="363" y="440"/>
      <point x="292" y="306" type="curve" smooth="yes"/>
      <point x="250" y="228"/>
      <point x="211" y="198"/>
      <point x="177" y="198" type="curve" smooth="yes"/>
      <point x="152" y="198"/>
      <point x="134" y="220"/>
      <point x="134" y="259" type="curve" smooth="yes"/>
      <point x="134" y="324"/>
      <point x="172" y="382"/>
      <point x="218" y="382" type="curve" smooth="yes"/>
      <point x="261" y="382"/>
      <point x="284" y="319"/>
      <point x="286" y="284" type="curve" smooth="yes"/>
      <point x="286" y="282"/>
      <point x="286" y="280"/>
      <point x="286" y="278" type="curve"/>
      <point x="343" y="340" type="line"/>
      <point x="347" y="405"/>
      <point x="308" y="486"/>
      <point x="221" y="486" type="curve" smooth="yes"/>
      <point x="116" y="486"/>
      <point x="32" y="371"/>
    </contour>
  </outline>
</glyph>
<glyph name="integral" format="1">
  <advance width="439"/>
  <unicode hex="222B"/>
  <outline>
    <contour>
      <point x="-88" y="-175" type="line"/>
      <point x="-65" y="-185"/>
      <point x="-29" y="-196"/>
      <point x="10" y="-196" type="curve" smooth="yes"/>
      <point x="89" y="-196"/>
      <point x="179" y="-160"/>
      <point x="214" y="3" type="curve" smooth="yes"/>
      <point x="328" y="537" type="line" smooth="yes"/>
      <point x="341" y="597"/>
      <point x="370" y="624"/>
      <point x="415" y="624" type="curve" smooth="yes"/>
      <point x="436" y="624"/>
      <point x="458" y="621"/>
      <point x="475" y="613" type="curve"/>
      <point x="514" y="711" type="line"/>
      <point x="488" y="722"/>
      <point x="453" y="731"/>
      <point x="412" y="731" type="curve" smooth="yes"/>
      <point x="301" y="731"/>
      <point x="230" y="673"/>
      <point x="203" y="548" type="curve" smooth="yes"/>
      <point x="91" y="19" type="line" smooth="yes"/>
      <point x="73" y="-67"/>
      <point x="41" y="-84"/>
      <point x="-2" y="-84" type="curve" smooth="yes"/>
      <point x="-18" y="-84"/>
      <point x="-33" y="-81"/>
      <point x="-52" y="-75" type="curve"/>
    </contour>
  </outline>
</glyph>
<glyph name="notequal" format="1">
  <advance width="600.0"/>
  <unicode hex="2260"/>
  <outline>
    <contour>
      <point x="31" y="112" type="line"/>
      <point x="498" y="112" type="line"/>
      <point x="521" y="226" type="line"/>
      <point x="54" y="226" type="line"/>
    </contour>
    <contour>
      <point x="61" y="-30" type="line"/>
      <point x="187" y="-30" type="line"/>
      <point x="543" y="610" type="line"/>
      <point x="417" y="610" type="line"/>
    </contour>
    <contour>
      <point x="82" y="354" type="line"/>
      <point x="549" y="354" type="line"/>
      <point x="573" y="468" type="line"/>
      <point x="106" y="468" type="line"/>
    </contour>
  </outline>
</glyph>
<glyph name="f_f" format="1">
  <advance width="722"/>
  <unicode hex="FB00"/>
  <outline>
    <contour>
      <point x="46" y="0" type="line"/>
      <point x="173" y="0" type="line"/>
      <point x="287" y="537" type="line" smooth="yes"/>
      <point x="299" y="596"/>
      <point x="330" y="625"/>
      <point x="373" y="625" type="curve"/>
      <point x="396" y="625"/>
      <point x="420" y="621"/>
      <point x="441" y="611" type="curve"/>
      <point x="479" y="709" type="line"/>
      <point x="450" y="722"/>
      <point x="411" y="731"/>
      <point x="373" y="731" type="curve"/>
      <point x="260" y="731"/>
      <point x="188" y="670"/>
      <point x="162" y="548" type="curve" smooth="yes"/>
    </contour>
    <contour>
      <point x="45" y="423" type="line"/>
      <point x="405" y="423" type="line"/>
      <point x="426" y="521" type="line"/>
      <point x="66" y="521" type="line"/>
    </contour>
    <contour>
      <point x="396" y="0" type="line"/>
      <point x="523" y="0" type="line"/>
      <point x="638" y="537" type="line" smooth="yes"/>
      <point x="649" y="596"/>
      <point x="681" y="625"/>
      <point x="724" y="625" type="curve"/>
      <point x="746" y="625"/>
      <point x="770" y="621"/>
      <point x="791" y="611" type="curve"/>
      <point x="830" y="709" type="line"/>
      <point x="800" y="722"/>
      <point x="762" y="731"/>
      <point x="723" y="731" type="curve"/>
      <point x="611" y="731"/>
      <point x="539" y="670"/>
      <point x="512" y="548" type="curve" smooth="yes"/>
    </contour>
    <contour>
      <point x="405" y="423" type="line"/>
      <point x="752" y="423" type="line"/>
      <point x="773" y="521" type="line"/>
      <point x="426" y="521" type="line"/>
    </contour>
  </outline>
</glyph>
<glyph name="I.alt" format="1">
  <advance width="298"/>
  <outline>
    <contour>
      <point x="22" y="0" type="line"/>
      <point x="156" y="0" type="line"/>
      <point x="303" y="690" type="line"/>
      <point x="168" y="690" type="line"/>
    </contour>
    <contour>
      <point x="235" y="690" type="move" name="top"/>
    </contour>
    <contour>
      <point x="22" y="0" type="move" name="ogonek"/>
    </contour>
    <contour>
      <point x="90" y="0" type="move" name="bottom"/>
    </contour>
  </outline>
</glyph>
<glyph name=".notdef" format="1">
  <advance width="600.0"/>
  <outline>
    <contour>
      <point x="82" y="-185" type="line"/>
      <point x="199" y="-185" type="line"/>
      <point x="199" y="690" type="line"/>
      <point x="82" y="690" type="line"/>
    </contour>
    <contour>
      <point x="149" y="-185" type="line"/>
      <point x="439" y="-185" type="line"/>
      <point x="439" y="-83" type="line"/>
      <point x="149" y="-83" type="line"/>
    </contour>
    <contour>
      <point x="149" y="588" type="line"/>
      <point x="439" y="588" type="line"/>
      <point x="439" y="690" type="line"/>
      <point x="149" y="690" type="line"/>
    </contour>
    <contour>
      <point x="389" y="-185" type="line"/>
      <point x="506" y="-185" type="line"/>
      <point x="506" y="690" type="line"/>
      <point x="389" y="690" type="line"/>
    </contour>
  </outline>
</glyph>
<glyph name="breve.cap" format="1">
  <advance width="600.0"/>
  <outline>
    <contour>
      <point x="281" y="858" type="curve" smooth="yes"/>
      <point x="281" y="793"/>
      <point x="328" y="744"/>
      <point x="408" y="744" type="curve" smooth="yes"/>
      <point x="494" y="744"/>
      <point x="555" y="791"/>
      <point x="570" y="884" type="curve"/>
      <point x="494" y="884" type="line"/>
      <point x="480" y="848"/>
      <point x="457" y="824"/>
      <point x="415" y="824" type="curve" smooth="yes"/>
      <point x="376" y="824"/>
      <point x="358" y="845"/>
      <point x="358" y="875" type="curve" smooth="yes"/>
      <point x="358" y="878"/>
      <point x="358" y="880"/>
      <point x="359" y="884" type="curve"/>
      <point x="284" y="884" type="line"/>
      <point x="282" y="878"/>
      <point x="281" y="870"/>
    </contour>
    <contour>
      <point x="387" y="690" type="move" name="_top"/>
    </contour>
  </outline>
</glyph>
<glyph name="commaaccent.alt" format="1">
  <advance width="600.0"/>
  <outline>
    <contour>
      <point x="470" y="867" type="line"/>
      <point x="401" y="867" type="line"/>
      <point x="348" y="774" type="line" smooth="yes"/>
      <point x="325" y="735"/>
      <point x="312" y="706"/>
      <point x="312" y="679" type="curve"/>
      <point x="312" y="635"/>
      <point x="341" y="611"/>
      <point x="378" y="611" type="curve"/>
      <point x="421" y="611"/>
      <point x="458" y="645"/>
      <point x="458" y="691" type="curve" smooth="yes"/>
      <point x="458" y="721"/>
      <point x="437" y="742"/>
      <point x="422" y="747" type="curve"/>
    </contour>
    <contour>
      <point x="351" y="521" type="move" name="_top"/>
    </contour>
  </outline>
</glyph>
<glyph name="dotaccent.cap" format="1">
  <advance width="600"/>
  <outline>
    <contour>
      <point x="344" y="815" type="curve"/>
      <point x="344" y="780"/>
      <point x="368" y="756"/>
      <point x="405" y="756" type="curve"/>
      <point x="449" y="756"/>
      <point x="487" y="792"/>
      <point x="487" y="837" type="curve"/>
      <point x="487" y="872"/>
      <point x="463" y="895"/>
      <point x="426" y="895" type="curve"/>
      <point x="382" y="895"/>
      <point x="344" y="859"/>
    </contour>
    <contour>
      <point x="387" y="690" type="move" name="_top"/>
    </contour>
  </outline>
</glyph>
<glyph name="grave.cap" format="1">
  <advance width="600"/>
  <outline>
    <contour>
      <point x="254" y="884" type="line"/>
      <point x="356" y="750" type="line"/>
      <point x="459" y="750" type="line"/>
      <point x="386" y="884" type="line"/>
    </contour>
    <contour>
      <point x="387" y="690" type="move" name="_top"/>
    </contour>
  </outline>
</glyph>
<glyph name="one.pl" format="1">
  <advance width="450.0"/>
  <outline>
    <contour>
      <point x="78" y="597" type="line"/>
      <point x="109" y="493" type="line"/>
      <point x="330" y="577" type="line"/>
      <point x="318" y="690" type="line"/>
    </contour>
    <contour>
      <point x="129" y="0" type="line"/>
      <point x="261" y="0" type="line"/>
      <point x="408" y="690" type="line"/>
      <point x="318" y="690" type="line"/>
      <point x="264" y="637" type="line"/>
    </contour>
  </outline>
</glyph>
<glyph name="ring.cap" format="1">
  <advance width="600"/>
  <outline>
    <contour>
      <point x="301" y="834" type="curve"/>
      <point x="301" y="778"/>
      <point x="342" y="740"/>
      <point x="406" y="740" type="curve"/>
      <point x="483" y="740"/>
      <point x="539" y="788"/>
      <point x="539" y="859" type="curve"/>
      <point x="539" y="914"/>
      <point x="498" y="953"/>
      <point x="435" y="953" type="curve"/>
      <point x="359" y="953"/>
      <point x="301" y="905"/>
    </contour>
    <contour>
      <point x="374" y="839" type="curve"/>
      <point x="374" y="867"/>
      <point x="395" y="889"/>
      <point x="428" y="889" type="curve" smooth="yes"/>
      <point x="451" y="889"/>
      <point x="466" y="874"/>
      <point x="466" y="853" type="curve"/>
      <point x="466" y="825"/>
      <point x="445" y="804"/>
      <point x="412" y="804" type="curve" smooth="yes"/>
      <point x="390" y="804"/>
      <point x="374" y="817"/>
    </contour>
    <contour>
      <point x="387" y="690" type="move" name="_top"/>
    </contour>
  </outline>
</glyph>
<glyph name="ring_acute" format="1">
  <advance width="600"/>
  <outline>
    <component base="acute" xOffset="75" yOffset="264"/>
    <component base="ring"/>
    <contour>
      <point x="351" y="521" type="move" name="_top"/>
    </contour>
  </outline>
</glyph>
<glyph name="seven.pl" format="1">
  <advance width="600"/>
  <outline>
    <contour>
      <point x="80" y="0" type="line"/>
      <point x="234" y="0" type="line"/>
      <point x="595" y="601" type="line"/>
      <point x="509" y="690" type="line"/>
    </contour>
    <contour>
      <point x="111" y="567" type="line"/>
      <point x="539" y="567" type="line"/>
      <point x="595" y="601" type="line"/>
      <point x="614" y="690" type="line"/>
      <point x="137" y="690" type="line"/>
    </contour>
  </outline>
</glyph>
